<svg width="198" height="148" viewBox="0 0 198 148" fill="none" xmlns="http://www.w3.org/2000/svg">
<path opacity="0.3" d="M57.2745 117.558C73.6078 118.512 98.7027 111.971 120.405 104.902C141.011 98.1908 142.03 76.9591 126.42 61.9259C121.432 57.1218 116.11 50.5281 109.936 40.4444C109.045 38.9897 108.309 37.4216 107.626 35.8588C101.755 22.4345 88.1319 4.91248 77.8725 25.1749C66.9962 46.6555 70.7827 56.978 50.6818 76.2933C39.1412 87.3829 26.9785 112.795 42.6817 115.889C46.5695 116.655 51.3407 117.212 57.2745 117.558Z" fill="#F89358"/>
<path d="M150.715 14.9722H128.721C125.081 14.9722 122.13 17.7625 122.13 21.2045V82.1215C122.13 85.5635 125.081 88.3538 128.721 88.3538H150.715C154.356 88.3538 157.307 85.5635 157.307 82.1215V21.2045C157.307 17.7625 154.356 14.9722 150.715 14.9722Z" fill="#00C65E"/>
<path d="M157.256 21.2045C157.256 17.7625 154.305 14.9722 150.664 14.9722C149.725 27.9105 148.256 42.2218 143.807 60.0234C139.358 77.8249 131.356 88.3538 134.996 88.3538H150.664C154.305 88.3538 157.256 85.5635 157.256 82.1215V21.2045Z" fill="#08A636"/>
<path d="M157.302 38.9683H122.125V40.5833H157.302V38.9683Z" fill="#FAFAFA"/>
<path d="M126.077 46.7722V53.7651H128.415V46.7722H126.077Z" fill="#FAFAFA"/>
<path d="M126.066 25.2175V32.2104H128.405V25.2175H126.066Z" fill="#FAFAFA"/>
<path d="M183.338 62.0785L169.857 56.9475C168.397 56.3916 166.773 57.0973 166.23 58.5237L154.631 88.997C154.088 90.4234 154.832 92.0304 156.293 92.5863L169.774 97.7173C171.234 98.2732 172.858 97.5676 173.401 96.1412L185 65.6679C185.543 64.2414 184.799 62.6345 183.338 62.0785Z" fill="white"/>
<path d="M183.338 62.0772L181.597 61.4146C181.597 61.4146 170.771 87.0365 162.344 94.8883L169.774 97.716C171.234 98.2719 172.858 97.5662 173.401 96.1398L185 65.6665C185.543 64.2401 184.799 62.6331 183.338 62.0772Z" fill="#CCEFDB"/>
<path d="M172.345 57.894L180.479 60.9899L180.209 61.6999C180.16 61.8273 180.085 61.9434 179.989 62.0415C179.893 62.1395 179.778 62.2175 179.651 62.2709C179.523 62.3243 179.386 62.3521 179.246 62.3526C179.107 62.3531 178.968 62.3264 178.839 62.2739L172.696 59.9359C172.435 59.8365 172.223 59.6398 172.107 59.389C171.991 59.1383 171.98 58.8541 172.077 58.5989L172.345 57.894Z" fill="#00C65E"/>
<path d="M178.686 62.6762L172.543 60.3383C172.175 60.1979 171.875 59.9201 171.711 59.5661C171.547 59.2121 171.532 58.8109 171.67 58.4507L172.093 57.3394L181.048 60.748L180.625 61.8593C180.556 62.0404 180.451 62.2055 180.316 62.3449C180.181 62.4844 180.018 62.5955 179.837 62.6716C179.656 62.7477 179.462 62.7873 179.264 62.7881C179.066 62.7889 178.87 62.7509 178.686 62.6762ZM172.606 58.4476L172.486 58.7614C172.43 58.9102 172.436 59.0758 172.503 59.222C172.571 59.3682 172.695 59.4828 172.847 59.5408L178.99 61.8788C179.142 61.9367 179.31 61.9332 179.458 61.869C179.606 61.8049 179.721 61.6852 179.777 61.5365L179.897 61.2227L172.606 58.4476Z" fill="#00C65E"/>
<path d="M169.58 98.2294L156.099 93.0983C155.261 92.7793 154.58 92.148 154.208 91.3435C153.836 90.539 153.801 89.627 154.113 88.8083L165.715 58.3247C166.027 57.506 166.659 56.8476 167.472 56.4943C168.285 56.141 169.213 56.1218 170.051 56.4409L183.532 61.5719C184.371 61.891 185.051 62.5222 185.423 63.3268C185.796 64.1313 185.83 65.0432 185.518 65.8619L173.92 96.3352C173.767 96.742 173.533 97.1138 173.231 97.4293C172.93 97.7448 172.568 97.9978 172.164 98.1737C171.761 98.3497 171.325 98.4452 170.882 98.4548C170.438 98.4643 169.996 98.3877 169.58 98.2294ZM169.664 57.4595C169.105 57.2468 168.486 57.2597 167.944 57.4952C167.402 57.7307 166.981 58.1697 166.773 58.7155L155.171 89.1991C154.963 89.7449 154.986 90.3528 155.234 90.8892C155.482 91.4255 155.936 91.8463 156.495 92.0591L169.976 97.1901C170.534 97.4028 171.153 97.39 171.695 97.1545C172.237 96.919 172.658 96.48 172.866 95.9342L184.465 65.4609C184.672 64.9151 184.65 64.3072 184.401 63.7708C184.153 63.2344 183.7 62.8136 183.141 62.6009L169.664 57.4595Z" fill="#00C65E"/>
<path d="M193.01 104.303L197.655 103.176L192.948 102.037L191.819 97.5894L190.69 102.037L185.983 103.176L190.632 104.303L191.819 108.988L193.01 104.303Z" fill="#00C65E"/>
<rect x="100.544" y="30.4875" width="1.57622" height="21.8693" transform="rotate(7.54978 100.544 30.4875)" fill="#00C65E"/>
<rect width="1.57622" height="15.3244" transform="matrix(-0.60945 0.792824 0.792824 0.60945 86.1594 43.4641)" fill="#00C65E"/>
<rect x="101.793" y="31.7571" width="1.57622" height="21.8693" transform="rotate(7.54978 101.793 31.7571)" fill="white"/>
<rect width="1.57622" height="15.3244" transform="matrix(-0.60945 0.792824 0.792824 0.60945 87.9124 43.6165)" fill="white"/>
<path d="M118.25 89.1019C117.727 89.2758 117.185 89.1743 116.688 88.9296C116.437 88.8102 116.213 88.6405 116.029 88.4308C115.845 88.221 115.706 87.9759 115.62 87.7104L114.518 85.043C114.391 84.7941 114.317 84.5221 114.299 84.2439C114.281 83.9656 114.32 83.687 114.414 83.4254C114.593 82.9009 114.97 82.4694 115.463 82.2233L104.008 86.9568C104.542 86.7911 105.129 86.8427 105.625 87.1062C105.879 87.2281 106.106 87.4011 106.291 87.6145C106.477 87.8278 106.617 88.077 106.702 88.3465L107.796 90.9928C107.969 91.5054 107.974 92.0594 107.811 92.5729C107.647 93.0887 107.307 93.5281 106.85 93.8125L118.25 89.1019Z" fill="white"/>
<path d="M114.529 44.7996L78.2787 59.7782C77.5096 60.1713 76.9261 60.8511 76.654 61.6708C76.3818 62.4905 76.443 63.3843 76.8243 64.1592L87.5147 90.0316C87.7916 90.8497 88.3792 91.526 89.1506 91.9145C89.9219 92.3031 90.8151 92.3726 91.6373 92.1083L127.888 77.1296C128.663 76.7402 129.253 76.0605 129.529 75.2384C129.805 74.4163 129.746 73.5183 129.363 72.7399L118.673 46.8675C118.394 46.0462 117.803 45.3681 117.027 44.9808C116.251 44.5935 115.353 44.5284 114.529 44.7996Z" fill="white"/>
<path d="M100.793 96.3275L124.362 86.5888C125.01 86.3212 125.752 86.6293 126.019 87.2769L126.133 87.5525C126.401 88.2001 126.093 88.942 125.445 89.2096L101.876 98.9483C101.228 99.2159 100.486 98.9078 100.219 98.2602L100.105 97.9846C99.8373 97.337 100.145 96.5951 100.793 96.3275Z" fill="#F7F7F7"/>
<path d="M127.091 73.7236C126.848 74.4486 126.328 75.0481 125.644 75.3915L111.004 81.4409C115.847 76.1062 118.276 67.7378 113.863 46.8798C114.59 46.6407 115.381 46.6981 116.066 47.0397C116.75 47.3812 117.272 47.9792 117.518 48.7035L126.945 71.5203C127.283 72.2067 127.335 72.9986 127.091 73.7236Z" fill="#00C65E"/>
<rect x="81.4108" y="84.3555" width="99.6385" height="26.4763" fill="#FFB762"/>
<rect x="166.669" y="84.355" width="3.01772" height="26.4763" fill="white"/>
<rect x="175.289" y="84.355" width="1.24555" height="26.4763" fill="white"/>
<rect x="96.2305" y="84.355" width="1.24555" height="26.4763" fill="white"/>
<rect x="87.611" y="84.355" width="3.01772" height="26.4763" fill="#F89358"/>
<rect x="81.4108" y="93.2612" width="8.6654" height="99.6385" transform="rotate(-90 81.4108 93.2612)" fill="#F89358"/>
</svg>
