<svg width="199" height="145" viewBox="0 0 199 145" fill="none" xmlns="http://www.w3.org/2000/svg">
<path d="M102.228 104.028C123.832 99.5034 143.825 92.1336 159.906 85.005C179.049 76.5194 177.852 55.4715 160.746 43.3945C154.405 38.9175 147.496 32.5617 138.975 21.9731C137.953 20.7029 137.068 19.2971 136.17 17.9363C128.95 6.99818 115.829 3.31529 102.161 21.9821C91.196 36.9575 84.732 42.8222 82.2284 44.7937C81.4486 45.4078 80.6287 45.948 79.8221 46.5264C76.226 49.105 65.3976 56.7973 58.9233 60.6146C51.0734 65.2429 29.9051 71.9417 39.9866 85.4129C51.9323 99.1799 63.4754 112.143 102.228 104.028Z" fill="#FFEEE3"/>
<path d="M94.383 45.23H36.8192V100.871H94.383V45.23Z" fill="#03CC60"/>
<path d="M68.5246 45.23H60.7386V53.0277H68.5246V45.23Z" fill="white"/>
<path d="M91.0494 55.4456H77.4149V61.6978H91.0494V55.4456Z" fill="white"/>
<path d="M88.5227 94.8276H67.4512V96.4939H88.5227V94.8276Z" fill="white"/>
<path d="M88.5227 89.855H74.0809V91.5213H88.5227V89.855Z" fill="white"/>
<path d="M88.5227 84.8939H79.6692V86.5602H88.5227V84.8939Z" fill="white"/>
<path d="M61.4417 68.5911L46.0625 68.1179L61.4417 67.8662V68.5911Z" fill="#03CC60"/>
<path d="M63.4097 74.4485L46.6816 74.1968L63.4097 73.6128V74.4485Z" fill="#03CC60"/>
<path d="M59.2381 78.9949L43.8589 78.7432L59.2381 78.4915V78.9949Z" fill="#03CC60"/>
<path d="M61.3734 70.7792H60.7433H60.3891L45.9995 70.3362L60.4777 70.0996H60.5558C61.4099 69.9939 62.1859 69.5459 62.1494 68.7203C62.1078 67.7135 60.2329 66.8225 56.5769 66.8225H41.9685L49.8846 63.938C49.8846 63.938 52.5928 62.8959 51.5668 60.6054C50.7231 58.7227 47.3431 59.8302 47.3431 59.8302C47.3431 59.8302 33.5472 64.3608 29.2142 66.4348C27.6615 67.2408 26.3049 68.3581 25.2353 69.712L0.703654 66.428C0.703654 66.428 0.63086 67.7338 0.63086 68.7203C0.630044 74.3164 1.11616 79.4287 2.54495 84.7749L25.605 81.4816C26.1425 82.5356 27.0729 83.3539 28.209 83.7721C30.4068 84.7034 33.417 84.7789 37.4792 84.9249L53.7646 84.9601C58.3059 84.9601 60.0558 83.7368 60.0558 82.7451C60.0558 82.1259 59.8163 81.2349 57.3893 81.1493L43.8069 80.9278L58.6705 80.6862C62.8056 80.5553 64.4305 79.3119 64.4305 78.2095C64.4305 77.5349 63.7691 76.6992 61.8995 76.6086H61.4724L46.6297 76.3871L61.9047 75.8837C64.5086 75.7931 67.0814 75.2645 67.0814 73.1905C67.1022 71.4387 64.4097 70.9 61.3734 70.7792Z" fill="url(#paint0_linear_1689_36919)"/>
<rect x="115.065" y="37.2384" width="16.9896" height="33.5766" transform="rotate(-60 115.065 37.2384)" fill="#0FC645" stroke="white"/>
<path d="M125.07 37.7393L122.837 36.5103L123.717 34.913C123.892 34.5955 124.147 34.3901 124.477 34.2942C124.808 34.1984 125.134 34.2355 125.451 34.4104C125.769 34.5852 125.974 34.8403 126.07 35.171C126.163 35.5065 126.121 35.8293 125.949 36.1421L125.07 37.7393ZM126.921 36.6771C127.265 36.0515 127.353 35.4205 127.18 34.7816C127.009 34.1501 126.626 33.6675 126.038 33.344C125.451 33.0204 124.838 32.9549 124.208 33.1455C123.58 33.3433 123.09 33.7525 122.745 34.3781L121.276 37.0464L124.48 38.8105L124.052 39.5878L125.024 40.1227L125.452 39.3454L126.129 39.7186L125.701 40.4959L126.673 41.0308L127.101 40.2535L128.072 40.7885L128.662 39.7174L127.691 39.1824L128.891 37.0022L127.919 36.4673L126.719 38.6475L126.041 38.2743L126.921 36.6771Z" fill="white"/>
<rect x="119.334" y="23.0185" width="16.9896" height="33.5766" transform="rotate(-30 119.334 23.0185)" fill="#0FC645" stroke="white"/>
<path d="M128.043 29.1831L126.739 26.9938L128.306 26.0607C128.617 25.8752 128.941 25.8271 129.275 25.9117C129.609 25.9963 129.871 26.1929 130.056 26.5043C130.242 26.8158 130.29 27.1398 130.205 27.4735C130.116 27.8101 129.917 28.0674 129.61 28.2501L128.043 29.1831ZM130.177 29.203C130.791 28.8376 131.186 28.3378 131.36 27.699C131.531 27.0677 131.445 26.4578 131.102 25.8814C130.759 25.305 130.263 24.9387 129.624 24.7845C128.982 24.6377 128.352 24.7423 127.738 25.1078L125.121 26.6665L126.993 29.8088L126.23 30.2629L126.798 31.2158L127.56 30.7618L127.956 31.4265L127.194 31.8805L127.761 32.8335L128.524 32.3794L129.091 33.3323L130.142 32.7066L129.574 31.7537L131.713 30.4801L131.145 29.5272L129.007 30.8008L128.611 30.136L130.177 29.203Z" fill="white"/>
<rect x="129.216" y="14.6965" width="16.9896" height="33.5766" transform="rotate(-4.13873 129.216 14.6965)" fill="#0FC645" stroke="white"/>
<path d="M137.786 25.3263L137.652 22.7815L139.473 22.6859C139.835 22.6668 140.144 22.7752 140.4 23.0056C140.656 23.2359 140.796 23.5319 140.815 23.8939C140.834 24.2559 140.726 24.565 140.495 24.821C140.26 25.0771 139.963 25.2119 139.607 25.2307L137.786 25.3263ZM139.665 26.3383C140.378 26.3008 140.96 26.0426 141.412 25.5584C141.858 25.0798 142.066 24.5 142.031 23.8301C141.995 23.1601 141.728 22.6053 141.234 22.1707C140.734 21.7419 140.128 21.5408 139.415 21.5782L136.373 21.7381L136.565 25.3905L135.679 25.4371L135.737 26.5447L136.623 26.4981L136.664 27.2707L135.777 27.3173L135.836 28.4249L136.722 28.3784L136.78 29.486L138.001 29.4218L137.943 28.3142L140.428 28.1836L140.37 27.076L137.885 27.2066L137.844 26.4339L139.665 26.3383Z" fill="white"/>
<path d="M132.265 62.9298C133.199 63.99 147.326 63.2471 151.27 62.5701C157.281 61.5382 158.655 59.9695 164.468 59.7104C173.251 59.3189 174.376 60.1645 184.034 60.9587C184.034 60.9587 184.869 58.0363 185.187 52.6611C185.504 47.286 185.187 42.0152 185.187 42.0152C183.561 41.5339 173.297 45.1377 165.393 44.9662C160.96 44.87 157.723 44.2047 156.518 42.8812C156.124 42.4482 154.659 40.1371 153.007 38.4851C151.685 37.1635 149.433 36.0595 148.302 35.9019L148.49 40.4357C148.49 40.4357 140.403 40.6786 134.242 40.6078C128.082 40.537 129.689 44.6302 131.262 46.6856C128.973 48.8808 130.21 51.5145 131.115 52.557C129.274 54.7757 131.115 57.0219 132.265 57.8677C132.265 57.8677 129.839 60.1739 132.265 62.9298Z" fill="url(#paint1_linear_1689_36919)"/>
<defs>
<linearGradient id="paint0_linear_1689_36919" x1="27.2751" y1="81.9204" x2="7.53744" y2="81.9204" gradientUnits="userSpaceOnUse">
<stop stop-color="#F3CEB4"/>
<stop offset="1" stop-color="#F3CEB4" stop-opacity="0"/>
</linearGradient>
<linearGradient id="paint1_linear_1689_36919" x1="164.372" y1="58.4493" x2="185.328" y2="58.4493" gradientUnits="userSpaceOnUse">
<stop stop-color="#FBCFB1"/>
<stop offset="1" stop-color="#FBCFB1" stop-opacity="0"/>
</linearGradient>
</defs>
</svg>
