<svg width="200" height="158" viewBox="0 0 200 158" fill="none" xmlns="http://www.w3.org/2000/svg">
<path opacity="0.2" d="M97.7863 112.188C122.577 104.615 145.183 93.755 162.779 83.929C181.215 73.633 178.42 52.3032 159.844 42.2597C152.169 38.1097 143.768 31.8921 132.985 20.4549C131.814 19.2138 130.783 17.8144 129.742 16.4634C121.275 5.47832 106.801 2.87873 93.0136 24.3081C81.7149 41.8698 74.9799 48.7458 72.5002 50.9654C71.7934 51.5981 71.0506 52.1708 70.3225 52.7788C66.7468 55.7642 55.1781 65.3467 48.258 70.1821C39.996 75.9553 17.3849 85.3298 29.1081 98.7129C42.8732 112.219 56.1551 124.907 97.7863 112.188Z" fill="#FFB762"/>
<path d="M94.7783 103.121H33.8639L41.8465 39.9656H86.7958L94.7783 103.121Z" fill="#FFB762"/>
<path d="M102.371 103.121H41.4664L49.449 39.9656H94.3884L102.371 103.121Z" fill="#FFB762"/>
<path d="M75.6012 40.1777H54.7469V25.8598C54.8268 23.1841 55.9604 20.6444 57.9071 18.7796C59.8539 16.9149 62.4606 15.8718 65.1741 15.8718C67.8876 15.8718 70.4943 16.9149 72.4411 18.7796C74.3878 20.6444 75.5214 23.1841 75.6012 25.8598V40.1777ZM59.9221 35.0725H70.426V25.8598C70.4554 25.1613 70.3413 24.4642 70.0906 23.8104C69.8399 23.1565 69.4578 22.5595 68.9672 22.055C68.4766 21.5506 67.8877 21.1492 67.2359 20.875C66.584 20.6008 65.8827 20.4594 65.1741 20.4594C64.4655 20.4594 63.7642 20.6008 63.1123 20.875C62.4605 21.1492 61.8716 21.5506 61.381 22.055C60.8904 22.5595 60.5083 23.1565 60.2576 23.8104C60.0069 24.4642 59.8928 25.1613 59.9221 25.8598V35.0725Z" fill="#FFB762"/>
<path d="M77.1187 42.4754H56.2644V28.1575C56.2233 26.7812 56.4627 25.4108 56.9682 24.1274C57.4737 22.844 58.2352 21.6737 59.2075 20.6859C60.1798 19.6981 61.3432 18.9128 62.6287 18.3765C63.9143 17.8403 65.2958 17.564 66.6915 17.564C68.0873 17.564 69.4688 17.8403 70.7544 18.3765C72.0399 18.9128 73.2033 19.6981 74.1756 20.6859C75.1479 21.6737 75.9093 22.844 76.4149 24.1274C76.9204 25.4108 77.1597 26.7812 77.1187 28.1575V42.4754ZM61.4396 37.3701H71.9435V28.1575C71.9729 27.459 71.8588 26.7619 71.6081 26.1081C71.3574 25.4542 70.9752 24.8571 70.4847 24.3527C69.9941 23.8482 69.4052 23.4468 68.7533 23.1727C68.1015 22.8985 67.4002 22.7571 66.6915 22.7571C65.9829 22.7571 65.2816 22.8985 64.6298 23.1727C63.9779 23.4468 63.389 23.8482 62.8984 24.3527C62.4078 24.8571 62.0257 25.4542 61.775 26.1081C61.5243 26.7619 61.4102 27.459 61.4396 28.1575V37.3701Z" fill="white"/>
<path d="M100.399 103.121H94.0886L86.733 39.9656H93.0435L100.399 103.121Z" fill="white"/>
<path d="M26.0853 78.0099C26.3634 76.9532 27.1523 76.106 28.1866 75.7537L42.3677 70.9221C43.4014 70.5699 44.5428 70.7587 45.4081 71.425L50.3716 75.2471C51.3884 76.0301 52.1515 77.0956 52.5654 78.3103L61.3762 104.171C61.9569 105.875 61.046 107.727 59.3417 108.308L37.5681 115.726C35.8638 116.307 34.0115 115.396 33.4308 113.692L24.6225 87.8387C24.209 86.6251 24.1625 85.3166 24.4888 84.0767L26.0853 78.0099Z" fill="#FE8A49"/>
<circle cx="42.5744" cy="93.1627" r="8.28426" transform="rotate(-39.2121 42.5744 93.1627)" fill="white"/>
<path d="M52.9921 74.3711C52.3458 74.0255 51.5888 73.9505 50.8873 74.1626C50.1857 74.3746 49.597 74.8564 49.2504 75.5022L41.918 89.3748L37.9198 86.0559C37.3496 85.6319 36.6382 85.4436 35.9329 85.53C35.2277 85.6163 34.5827 85.9708 34.1317 86.5198C33.6807 87.0688 33.4583 87.7704 33.5105 88.479C33.5627 89.1876 33.8856 89.8489 34.4122 90.3259L40.7706 95.5343C40.9772 95.765 41.2246 95.9557 41.5003 96.0967C42.0702 96.3996 42.7298 96.4881 43.3594 96.346C43.826 96.2632 44.2619 96.0566 44.6214 95.7477C44.9808 95.4389 45.2508 95.0392 45.403 94.5904L54.1309 78.1173C54.4756 77.4693 54.5493 76.7111 54.3358 76.0088C54.1224 75.3066 53.6391 74.7177 52.9921 74.3711Z" fill="#00C65E"/>
<path d="M14.3835 35.9901L23.9845 34.6322L14.6551 31.536L13.1206 22.614L10.0923 31.1421L0.369141 32.568L9.57627 35.5828L11.2058 45.0072L14.3835 35.9901Z" fill="#00C65E"/>
<path d="M121.328 105.017L125.924 104.367L121.458 102.885L120.723 98.614L119.274 102.697L114.619 103.379L119.027 104.822L119.807 109.334L121.328 105.017Z" fill="#00C65E"/>
</svg>
