<svg width="125" height="134" viewBox="0 0 125 134" fill="none" xmlns="http://www.w3.org/2000/svg">
<path opacity="0.3" d="M72.353 93.7913C92.3412 78.6583 106.166 57.8875 114.291 43.0085C119.483 33.5001 113.169 22.1474 102.612 24.5797C92.4882 26.9122 83.5723 31.3538 62.353 28.3545C61.522 28.237 60.6813 28.0402 59.8718 27.8191C47.584 24.4621 35.3254 26.8513 32.7864 45.8117C30.8582 60.2114 28.969 66.7619 28.104 69.2209C27.8081 70.0621 27.477 70.8866 27.1821 71.7282C26.1915 74.5553 23.6036 81.5028 20.5407 86.2632C16.6137 92.3667 0.737261 99.4593 13.774 105.934C28.3176 111.988 46.9009 113.061 72.353 93.7913Z" fill="#FFB762"/>
<path d="M76.1606 92.5032H39.1375V34.5495C39.1443 33.8041 39.4572 33.0869 40.0164 32.5344C40.3338 32.1993 40.7283 31.9295 41.173 31.7435C41.6177 31.5575 42.1021 31.4597 42.5929 31.4568H72.6931C73.1463 31.4568 73.5951 31.5369 74.0136 31.6924C74.4322 31.848 74.8123 32.0759 75.1323 32.3633C75.4522 32.6506 75.7056 32.9916 75.8779 33.3668C76.0502 33.742 76.1381 34.1439 76.1366 34.5495L76.1606 92.5032Z" fill="white"/>
<path d="M34.0534 26.4103L41.6633 24.6383L34.0534 22.8445L32.1074 15.8325L30.2919 22.8445L22.682 24.6383L30.2919 26.4103L32.1074 33.8028L34.0534 26.4103Z" fill="#F89358"/>
<path d="M87.9895 37.5717L92.4793 36.4846L87.9786 35.3975L86.8915 31.2664L85.8043 35.3975L81.2927 36.4846L85.75 37.5717L86.8371 41.9203L87.9895 37.5717Z" fill="#00C65E"/>
<path d="M76.1612 95.3092H42.7319V36.8432C42.7382 36.0912 43.0206 35.3676 43.5255 34.8103C43.8121 34.4722 44.1684 34.2 44.5699 34.0124C44.9715 33.8247 45.4088 33.7261 45.852 33.7231H73.0303C73.4395 33.7231 73.8447 33.8039 74.2227 33.9609C74.6006 34.1178 74.9438 34.3478 75.2327 34.6376C75.5215 34.9275 75.7503 35.2716 75.906 35.65C76.0616 36.0285 76.1409 36.434 76.1395 36.8432L76.1612 95.3092Z" fill="#00C65E"/>
<path d="M76.1608 95.3073H42.7315V36.8414C42.7315 35.1128 45.308 63.8457 51.5155 72.5754C54.0125 75.9992 57.3533 78.7182 61.2128 80.468C65.9419 82.4901 71.0395 83.5081 76.1826 83.4576L76.1608 95.3073Z" fill="#08A636"/>
<path d="M66.0269 41.1575V48.0934H70.5819V41.1575H66.0269Z" fill="white"/>
<path d="M53.1024 41.1577H48.5474V48.0936H53.1024V41.1577Z" fill="white"/>
<path d="M57.2866 41.1575V48.0934H61.8417V41.1575H57.2866Z" fill="white"/>
<path d="M66.0261 53.5623V60.5525H70.5811V53.5623H66.0261Z" fill="white"/>
<path d="M53.1007 53.5625H48.5457V60.4984H53.1007V53.5625Z" fill="white"/>
<path d="M57.2857 53.5623V60.5525H61.8408V53.5623H57.2857Z" fill="white"/>
<path d="M66.0273 66.0232V72.9591H70.5824V66.0232H66.0273Z" fill="white"/>
<path d="M57.2869 66.0232V72.9591H61.8419V66.0232H57.2869Z" fill="white"/>
<path d="M66.0261 78.4297V85.3656H70.5812V78.4297H66.0261Z" fill="white"/>
<rect x="45.0103" y="76.8052" width="8.60133" height="8.94662" fill="#F89358"/>
<path d="M49.2086 80.9988C48.9495 80.9988 48.7471 81.0446 48.6014 81.1364L48.6554 80.4186H50.2582V79.6981H47.9106L47.773 81.9108L48.3532 81.9648L48.4125 81.8865C48.453 81.838 48.5259 81.7867 48.6311 81.7354C48.7336 81.6869 48.8524 81.6599 48.9873 81.6599C49.1789 81.6599 49.3381 81.7219 49.4622 81.8434C49.5863 81.9675 49.6484 82.1186 49.6484 82.2967C49.6484 82.4775 49.5917 82.6232 49.473 82.7365C49.3543 82.8499 49.1924 82.9038 48.9846 82.9038C48.8227 82.9038 48.6662 82.8687 48.5097 82.7959C48.3559 82.7257 48.256 82.6691 48.2075 82.6259C48.1616 82.5827 48.1265 82.5476 48.1022 82.518L47.6057 83.0414L47.657 83.1035C47.6921 83.1494 47.7487 83.2006 47.827 83.26C47.9079 83.3194 47.9997 83.376 48.1049 83.4354C48.2102 83.4948 48.3478 83.546 48.5151 83.5892C48.6824 83.6324 48.8578 83.6513 49.0413 83.6513C49.4784 83.6513 49.8319 83.5245 50.1017 83.2681C50.3716 83.0118 50.5038 82.688 50.5038 82.2967C50.5038 81.9243 50.3824 81.6167 50.1341 81.3684C49.8885 81.1229 49.5809 80.9988 49.2086 80.9988Z" fill="white"/>
<path d="M21.0888 78.7328L30.4432 78.7358C30.4432 78.7358 27.6368 84.5855 27.2592 86.5995C26.8815 88.6136 26.4521 93.9336 26.4521 93.9336C26.3292 95.5965 26.275 99.7904 26.1292 103.585C26.627 103.693 28.6766 104.218 28.6766 105.004C28.6766 105.324 28.7327 106.055 28.6766 106.679L22.2412 106.679L22.1185 94.0549C21.9511 92.077 21.0888 78.7328 21.0888 78.7328Z" fill="#F1A74F"/>
<path d="M20.399 68.1079C20.2583 63.5653 20.9538 62.61 21.7916 62.2161C22.3643 61.9468 24.4811 61.5398 26.5679 62.4554C27.4989 62.8639 29.1479 63.7794 30.3524 66.0476C31.0869 67.4308 31.4876 68.8267 31.8129 71.4939L30.5536 71.6408L27.9325 71.9958L30.5536 74.2143L30.3524 79.4105L21.097 78.7765C20.5518 74.8769 20.5092 71.6641 20.399 68.1079Z" fill="#00C65E"/>
<path d="M21.0888 78.7328L30.4432 78.7358C30.4432 78.7358 29.8407 83.5712 29.3858 86.7049C28.9309 89.8385 28.2755 93.9336 28.2755 93.9336C28.1526 95.5965 28.0984 99.7904 27.9526 103.585C28.4504 103.693 30.5 104.218 30.5 105.004C30.5 105.324 30.5561 106.055 30.5 106.679L24.0646 106.679L23.9419 94.0549L21.0888 78.7328Z" fill="#FFB762"/>
<path d="M19.5357 54.9064C19.4647 53.618 19.4656 53.0326 20.0227 52.3583C21.5052 50.5639 25.5539 51.3594 26.7097 52.0515C27.5288 52.5421 27.8373 53.3323 28.0066 54.3365C28.142 55.1399 28.2587 57.605 27.8299 58.8989C27.5404 59.7723 26.3572 61.5635 23.94 61.7412C21.5227 61.9189 20.4142 60.2146 20.1621 59.3402C19.8363 57.9641 19.6127 56.3033 19.5357 54.9064Z" fill="#FBCFB1"/>
<path d="M19.5357 54.9064C19.4647 53.618 19.4656 53.0326 20.0227 52.3583C21.5052 50.5639 25.5539 51.3594 26.7097 52.0515C27.5288 52.5421 27.9369 53.383 28.0563 54.707L19.5357 54.9064Z" fill="#00C65E"/>
<path d="M27.7904 53.9058L29.9763 53.3049" stroke="#00C65E" stroke-width="1.63768" stroke-linecap="round"/>
<path d="M30.4486 80.5916L27.8315 72.166L31.327 71.5302L32.6537 80.237L33.2002 81.0025C33.2002 81.0025 33.5339 81.9901 33.64 82.7146C33.7533 83.4888 33.894 84.7048 33.894 84.7048L32.5776 85.0572C31.6788 83.841 30.8622 82.7358 30.5294 81.7694C30.5294 81.7694 30.5313 80.8379 30.4486 80.5916Z" fill="#FBCFB1"/>
<path d="M26.9576 67.9286C27.1239 67.9061 27.277 68.0227 27.2994 68.189L27.7814 71.7578L31.788 71.4781L27.5158 72.3656C27.3636 72.3656 27.235 72.2531 27.2146 72.1023L26.6971 68.2704C26.6746 68.1041 26.7913 67.951 26.9576 67.9286Z" fill="#1E7836"/>
</svg>
