<svg width="71" height="70" viewBox="0 0 71 70" fill="none" xmlns="http://www.w3.org/2000/svg">
<circle cx="35.3828" cy="35" r="35" fill="#00C65E"/>
<path d="M34.7037 36.321V34.7462H35.8962C36.1289 34.7462 36.3201 34.8251 36.4738 34.9747C36.6234 35.1285 36.7024 35.3196 36.7024 35.5523C36.7024 35.7684 36.6234 35.9512 36.4738 36.1008C36.3201 36.2504 36.1289 36.321 35.8962 36.321H34.7037ZM35.8962 37.3391C36.5195 37.3391 37.0223 37.1645 37.4046 36.8155C37.7869 36.4665 37.978 36.0343 37.978 35.5107C37.978 34.9913 37.7827 34.5509 37.3921 34.1852C37.0015 33.8196 36.5071 33.6367 35.9129 33.6367H33.428V36.321H32.7881V37.3391H33.428V37.8086H32.7881V38.8308H33.428V39.5954H34.7037V38.8308H36.4904V37.8086H34.7037V37.3391H35.8962Z" fill="white"/>
<path d="M32.8118 25.2619C33.6206 22.7727 37.1417 22.7727 37.9504 25.2619L39.5833 30.2883C39.6556 30.5109 39.8638 30.6613 40.0979 30.6613H45.3831C48.0001 30.6616 49.0881 34.0106 46.9709 35.549L42.6946 38.6555C42.5053 38.793 42.426 39.0374 42.4983 39.2599L44.1321 44.2863C44.9409 46.7755 42.0913 48.8452 39.9739 47.3068L35.6985 44.2004C35.5092 44.063 35.253 44.0631 35.0637 44.2004L30.7874 47.3068C28.6699 48.8452 25.8213 46.7755 26.6301 44.2863L28.2629 39.2599C28.3353 39.0373 28.256 38.7931 28.0667 38.6555L23.7913 35.549C21.6738 34.0106 22.7619 30.6613 25.3792 30.6613H30.6643C30.8984 30.6613 31.1056 30.5109 31.178 30.2883L32.8118 25.2619Z" stroke="white" stroke-width="2.16143"/>
<rect width="2.13982" height="5.88038" rx="1.06991" transform="matrix(-0.01359 -0.999908 0.999977 -0.006828 51.4496 35.2773)" fill="white"/>
<rect width="2.13982" height="5.88039" rx="1.06991" transform="matrix(-0.01359 -0.999908 0.999977 -0.00682799 13.4639 36.3164)" fill="white"/>
<rect width="2.14684" height="5.86116" rx="1.07342" transform="matrix(0.999977 -0.00682792 0.0135899 0.999908 33.8121 15.0146)" fill="white"/>
<rect width="2.14684" height="5.86116" rx="1.07342" transform="matrix(0.999977 -0.00682792 0.0135899 0.999908 33.8125 49.1406)" fill="white"/>
<rect width="2.14334" height="4.36953" rx="1.07167" transform="matrix(-0.71784 -0.701047 0.698653 -0.710719 46.9648 24.957)" fill="white"/>
<rect width="2.14334" height="4.36953" rx="1.07167" transform="matrix(0.698653 -0.710719 -0.717841 -0.701047 23.0751 25.1242)" fill="white"/>
<rect width="2.14334" height="4.36953" rx="1.07167" transform="matrix(-0.698654 0.710718 0.717841 0.701046 47.6602 45.1992)" fill="white"/>
<rect width="2.14334" height="4.36952" rx="1.07167" transform="matrix(0.717842 0.701046 -0.698654 0.710718 23.4559 45.8051)" fill="white"/>
</svg>
