<svg width="72" height="71" viewBox="0 0 72 71" fill="none" xmlns="http://www.w3.org/2000/svg">
<circle cx="36.3828" cy="35.5" r="35.5" fill="#00C65E"/>
<path d="M36.5368 17.1216L48.2361 18.813C48.7712 18.8903 49.1628 19.3447 49.1628 19.8794V34.7866C49.1627 46.324 39.7972 52.0431 36.6521 53.6303C36.4808 53.7166 36.2942 53.7168 36.1228 53.6303C32.9753 52.0432 23.6014 46.3241 23.6013 34.7866V19.8794C23.6013 19.3447 23.9938 18.8903 24.529 18.813L36.2273 17.1216C36.3298 17.1067 36.4343 17.1068 36.5368 17.1216Z" stroke="white" stroke-width="3.16474"/>
<path d="M31.2544 30.0575H34.2613V36.9182H35.5538C38.4541 36.9182 39.9036 35.509 39.9025 32.6907C39.9025 29.93 38.5567 28.5502 35.865 28.5512H35.3221V26.3177L35.7103 26.3177C38.0255 26.3177 39.8243 26.8733 41.1066 27.9845C42.3889 29.0956 43.0295 30.6427 43.0284 32.6256C43.0284 34.7368 42.3646 36.353 41.0369 37.4742C39.7092 38.5955 37.7874 39.1597 35.2715 39.1667H31.2544V30.0575Z" fill="white"/>
<path d="M34.263 26.3177H31.2544V28.9982H34.263V26.3177Z" fill="white"/>
</svg>
