<svg width="205" height="118" viewBox="0 0 205 118" fill="none" xmlns="http://www.w3.org/2000/svg">
<path opacity="0.3" d="M56.0833 89.218C82.7174 96.5158 109.254 99.4986 130.416 100.57C151.506 101.637 160.809 81.9446 150.107 63.7404C145.332 55.6191 141.114 45.2483 137.808 28.2016C137.483 26.5271 137.357 24.7911 137.205 23.0922C135.913 8.71353 124.666 -1.66419 100.637 9.50621C80.891 18.6859 71.1727 20.9574 67.8134 21.5143C66.8776 21.6695 65.9392 21.7569 64.9988 21.8816C60.2661 22.5092 44.7285 24.5088 35.9476 24.9126C25.5005 25.393 0.473018 21.0735 3.33098 39.3113C7.91127 58.7898 12.5218 77.2821 56.0833 89.218Z" fill="#FFB762" fill-opacity="0.42"/>
<path d="M72.6325 62.5907C80.4511 57.8413 82.9302 50.7701 83.4579 48.2887C85.4444 47.333 90.7674 47.0541 87.0985 54.0439C82.5125 62.781 73.2054 69.868 65.0425 73.2383C61.1915 74.8283 57.5383 75.851 53.0561 74.6892C48.5739 73.5274 45.8638 69.3422 47.3111 67.0796C49.6475 63.4269 55.4153 68.5686 58.6143 67.5312C60.3689 66.9623 57.0945 65.6677 54.8689 62.0427C53.0885 59.1427 57.1598 60.9406 59.1211 62.6784C61.0824 64.4162 62.7667 66.5164 63.9631 66.5471C65.5104 66.5868 68.0934 65.3479 72.6325 62.5907Z" fill="#F89358"/>
<path d="M176.416 62.5907C168.597 57.8413 166.118 50.7701 165.59 48.2887C163.604 47.333 158.281 47.0541 161.95 54.0439C166.536 62.781 175.843 69.868 184.006 73.2383C187.857 74.8283 191.51 75.851 195.992 74.6892C200.474 73.5274 203.185 69.3422 201.737 67.0796C199.401 63.4269 193.633 68.5686 190.434 67.5312C188.679 66.9623 191.954 65.6677 194.179 62.0427C195.96 59.1427 191.889 60.9406 189.927 62.6784C187.966 64.4162 186.282 66.5164 185.085 66.5471C183.538 66.5868 180.955 65.3479 176.416 62.5907Z" fill="#F89358"/>
<circle cx="124.867" cy="48.8159" r="43.8152" fill="#CCEFDB"/>
<path d="M145.839 10.3027C149.208 12.1423 152.352 14.4383 155.191 17.1614C154.926 17.8986 154.476 18.7094 153.777 18.7094C153.766 18.7094 153.755 18.7092 153.744 18.7088C153.144 18.6871 152.449 18.4589 151.712 18.2175C150.597 17.8518 149.333 17.4368 147.896 17.5528C146.49 17.6656 145.285 18.2591 144.222 18.7826C143.225 19.2733 142.365 19.6977 141.748 19.5435C141.162 19.3974 140.548 18.6594 139.919 17.8508C139.639 17.4915 139.466 17.2338 139.402 17.0826C139.477 16.9574 139.63 16.7599 139.711 16.6548C140.503 15.6293 141.842 14.3167 143.136 13.0473C144.07 12.1312 145.022 11.1954 145.839 10.3027ZM131.845 5.5403C131.613 7.02203 130.973 8.97513 130.392 9.69282C129.751 10.4857 128.617 10.8518 127.865 10.5094C127.107 10.1636 126.506 9.08297 126.259 7.61875C126.097 6.65891 125.778 5.7916 125.441 5.00049C127.605 5.02596 129.744 5.20762 131.845 5.5403ZM93.9552 17.815C99.1469 12.6233 105.414 8.89713 112.253 6.84256C113.079 9.55811 114.084 12.1022 115.065 14.5063C115.816 16.3474 116.668 18.4338 116.475 20.322C116.402 21.0451 116.218 21.9697 115.76 22.2692C115.362 22.5298 114.563 22.5965 113.717 22.6671C112.323 22.7835 110.588 22.9284 109.007 24.0382C108.669 24.2752 108.356 24.5203 108.053 24.7569C107.401 25.2657 106.786 25.746 106.213 25.9067C105.646 26.0659 104.915 25.9826 104.068 25.8861C103.582 25.8307 103.08 25.7736 102.548 25.7561C100.859 25.694 97.009 26.5055 95.3329 28.6945C94.5045 29.7763 94.266 31.084 94.6611 32.3767C94.9538 33.3347 95.581 34.0031 96.1562 34.5307C98.8429 36.994 102.53 38.7386 106.272 39.3176C106.808 39.4004 107.326 39.4636 107.827 39.5251C110.571 39.861 111.936 40.1051 112.974 41.9752C113.232 42.441 113.44 42.9924 113.661 43.5762C113.915 44.2485 114.177 44.9437 114.559 45.6445C115.694 47.7263 117.607 48.9458 119.551 48.8375C121.001 48.754 122.072 47.9969 122.933 47.3888C123.33 47.1083 123.705 46.8433 124.026 46.7095C124.889 46.3494 126.206 46.6692 127.547 47.5633C128.467 48.1768 129.657 49.1915 130.103 50.5419C130.438 51.5579 130.206 52.734 129.556 53.2837L123.708 58.2781C121.825 59.8866 119.81 61.8397 119.742 64.672C119.721 65.5678 119.906 66.4279 120.069 67.187C120.183 67.7181 120.374 68.6071 120.271 68.8393C120.164 68.9346 119.662 69.0575 119.363 69.131C118.835 69.2601 118.237 69.4065 117.63 69.7136C114.684 71.2011 114.409 74.7252 114.226 77.0576C114.094 78.7494 113.467 80.1732 112.827 80.2317C112.307 80.2817 111.572 79.3821 111.317 78.3851C111.158 77.7665 111.084 77.0769 111.005 76.3466C110.892 75.2947 110.763 74.1022 110.34 72.9313C109.796 71.4225 108.848 70.1787 108.012 69.0814C107.191 68.0034 106.415 66.9853 106.165 65.9261C105.977 65.1328 106.053 64.1796 106.133 63.17C106.235 61.8846 106.351 60.4278 105.944 58.9449C105.364 56.837 103.928 55.3307 102.662 54.0014C101.83 53.1287 101.044 52.3044 100.577 51.4138C100.014 50.3402 100.084 49.2148 100.165 47.9117C100.242 46.6767 100.329 45.2768 99.8372 43.8364C99.3461 42.398 98.1853 41.5671 97.3256 40.9515C94.805 39.1471 92.444 37.0921 90.3084 34.8435C89.1668 33.6415 88.0507 32.3287 87.6184 30.8756C87.5053 30.4958 87.4272 30.2089 87.3657 29.9845C87.0925 28.984 86.9315 28.6267 86.3575 27.9914C88.3557 24.2957 90.9012 20.869 93.9552 17.815ZM160.462 74.3144C159.327 74.111 158.321 73.535 157.517 72.6163C155.884 70.7502 156.39 69.0752 157.506 66.032C158.067 64.5023 158.647 62.9201 158.829 61.1614C159.106 58.4721 158.683 56.4022 157.537 54.8331C156.184 52.9811 154.147 52.2292 152.35 51.5658C151.978 51.4287 151.627 51.299 151.29 51.1633C149.749 50.5415 148.3 49.6732 146.766 48.754C145.866 48.2138 144.934 47.6554 144.421 46.9487C143.79 46.08 144.566 42.8238 146.017 40.2488C147.107 38.3146 149.291 36.2379 151.857 36.7473C153.066 36.9876 154.137 37.3844 155.271 37.8044C157.351 38.5752 159.503 39.3741 162.418 39.1483C163.025 39.1017 163.619 39.0941 164.194 39.0868C165.228 39.0738 166.427 39.0581 167.522 38.7014C168.286 41.9627 168.681 45.3345 168.681 48.7677C168.681 58.0658 165.799 66.9196 160.462 74.3144Z" fill="#00C65E"/>
<ellipse cx="115.85" cy="34.0786" rx="3.91452" ry="5.4407" fill="white"/>
<ellipse cx="133.884" cy="34.0794" rx="3.91452" ry="5.4407" fill="white"/>
<ellipse cx="115.85" cy="36.1169" rx="2.44964" ry="3.40469" fill="#363A45"/>
<ellipse cx="133.885" cy="36.1169" rx="2.44964" ry="3.40469" fill="#363A45"/>
<path fill-rule="evenodd" clip-rule="evenodd" d="M136.016 56.7424C135.057 61.7856 130.43 64.6947 124.866 64.6947C119.302 64.6947 114.675 61.7856 113.716 56.7424C113.597 57.4025 113.534 58.0824 113.534 58.777C113.534 65.0354 118.608 70.1089 124.866 70.1089C131.125 70.1089 136.198 65.0354 136.198 58.777C136.198 58.0824 136.136 57.4025 136.016 56.7424Z" fill="white"/>
</svg>
