<svg width="71" height="70" viewBox="0 0 71 70" fill="none" xmlns="http://www.w3.org/2000/svg">
<circle cx="35.3828" cy="35" r="35" fill="#00C65E"/>
<path fill-rule="evenodd" clip-rule="evenodd" d="M35.385 54.9986C46.4292 54.9986 55.3822 46.0456 55.3822 35.0014C55.3822 23.9573 46.4292 15.0042 35.385 15.0042C24.3409 15.0042 15.3878 23.9573 15.3878 35.0014C15.3878 46.0456 24.3409 54.9986 35.385 54.9986ZM25.832 49.2994C28.6596 51.1894 31.9841 52.1986 35.3853 52.1992C39.9452 52.1948 44.3171 50.3816 47.5417 47.1576C50.7664 43.9336 52.5804 39.562 52.5858 35.0021C52.5858 31.601 51.5773 28.2762 49.6878 25.4483C47.7983 22.6203 45.1127 20.4161 41.9705 19.1144C38.8283 17.8127 35.3707 17.4719 32.0349 18.1352C28.6991 18.7985 25.6348 20.436 23.2297 22.8407C20.8245 25.2454 19.1863 28.3094 18.5224 31.6451C17.8585 34.9807 18.1985 38.4384 19.4996 41.5808C20.8007 44.7233 23.0044 47.4093 25.832 49.2994Z" fill="white"/>
<path d="M36.0464 21.5318V19.8233C36.0464 19.4573 35.7497 19.1606 35.3837 19.1606C35.0177 19.1606 34.7209 19.4573 34.7209 19.8233V21.5318C34.7209 21.8978 35.0177 22.1945 35.3837 22.1945C35.7497 22.1945 36.0464 21.8978 36.0464 21.5318Z" fill="white"/>
<path d="M36.0346 50.1681V48.4596C36.0346 48.0936 35.7379 47.7969 35.3718 47.7969C35.0058 47.7969 34.7091 48.0936 34.7091 48.4596V50.1681C34.7091 50.5341 35.0058 50.8309 35.3718 50.8309C35.7379 50.8309 36.0346 50.5341 36.0346 50.1681Z" fill="white"/>
<path d="M21.9067 34.339H20.1981C19.8321 34.339 19.5354 34.6357 19.5354 35.0017C19.5354 35.3677 19.8321 35.6645 20.1981 35.6645H21.9067C22.2727 35.6645 22.5694 35.3677 22.5694 35.0017C22.5694 34.6357 22.2727 34.339 21.9067 34.339Z" fill="white"/>
<path d="M50.5473 34.339H48.8388C48.4727 34.339 48.176 34.6357 48.176 35.0017C48.176 35.3677 48.4727 35.6645 48.8388 35.6645H50.5473C50.9133 35.6645 51.21 35.3677 51.21 35.0017C51.21 34.6357 50.9133 34.339 50.5473 34.339Z" fill="white"/>
<path d="M27.3595 21.6325L28.6222 23.8196C28.6924 23.9412 28.8479 23.9829 28.9695 23.9127C29.0911 23.8425 29.1328 23.687 29.0626 23.5654L27.7998 21.3782C27.7296 21.2566 27.5741 21.215 27.4525 21.2852C27.3309 21.3554 27.2893 21.5109 27.3595 21.6325Z" fill="white"/>
<path d="M21.7487 27.4299L23.9359 28.6927C24.0575 28.7629 24.2129 28.7212 24.2832 28.5996C24.3534 28.478 24.3117 28.3225 24.1901 28.2523L22.003 26.9896C21.8813 26.9193 21.7259 26.961 21.6556 27.0826C21.5854 27.2042 21.6271 27.3597 21.7487 27.4299Z" fill="white"/>
<path d="M21.9983 43.0176L24.1854 41.7548C24.307 41.6846 24.3487 41.5291 24.2785 41.4075C24.2083 41.2859 24.0528 41.2442 23.9312 41.3144L21.744 42.5772C21.6224 42.6474 21.5808 42.8029 21.651 42.9245C21.7212 43.0461 21.8767 43.0878 21.9983 43.0176Z" fill="white"/>
<path d="M28.0196 48.841L29.2823 46.6438C29.3525 46.5216 29.3104 46.3657 29.1882 46.2955C29.0661 46.2253 28.9101 46.2674 28.8399 46.3896L27.5772 48.5867C27.507 48.7089 27.5491 48.8648 27.6712 48.9351C27.7934 49.0053 27.9493 48.9631 28.0196 48.841Z" fill="white"/>
<path d="M43.3862 48.38L42.1234 46.1929C42.0532 46.0713 41.8977 46.0296 41.7761 46.0998C41.6545 46.17 41.6128 46.3255 41.683 46.4471L42.9458 48.6343C43.016 48.7559 43.1715 48.7976 43.2931 48.7274C43.4147 48.6571 43.4564 48.5016 43.3862 48.38Z" fill="white"/>
<path d="M48.9964 42.5785L46.8093 41.3157C46.6877 41.2455 46.5322 41.2872 46.462 41.4088C46.3918 41.5304 46.4334 41.6859 46.555 41.7561L48.7422 43.0188C48.8638 43.089 49.0193 43.0474 49.0895 42.9258C49.1597 42.8042 49.118 42.6487 48.9964 42.5785Z" fill="white"/>
<path d="M48.7478 26.9908L46.5607 28.2536C46.4391 28.3238 46.3974 28.4793 46.4676 28.6009C46.5378 28.7225 46.6933 28.7642 46.8149 28.694L49.0021 27.4312C49.1237 27.361 49.1653 27.2055 49.0951 27.0839C49.0249 26.9623 48.8694 26.9206 48.7478 26.9908Z" fill="white"/>
<path d="M42.9478 21.3813L41.685 23.5684C41.6148 23.69 41.6565 23.8455 41.7781 23.9157C41.8997 23.9859 42.0552 23.9443 42.1254 23.8227L43.3882 21.6355C43.4584 21.5139 43.4167 21.3584 43.2951 21.2882C43.1735 21.218 43.018 21.2597 42.9478 21.3813Z" fill="white"/>
<path d="M35.859 32.9097C35.0578 32.9097 34.4318 33.0516 33.9812 33.3354L34.1481 31.1154H39.1054V28.8871H31.8447L31.419 35.7306L33.2134 35.8975L33.397 35.6555C33.5222 35.5053 33.7475 35.3467 34.073 35.1881C34.3901 35.0379 34.7573 34.9544 35.1746 34.9544C35.7672 34.9544 36.2596 35.1464 36.6435 35.522C37.0274 35.9059 37.2193 36.3732 37.2193 36.924C37.2193 37.4832 37.0441 37.9339 36.6768 38.2844C36.3096 38.6349 35.8089 38.8018 35.1663 38.8018C34.6655 38.8018 34.1815 38.6933 33.6974 38.468C33.2217 38.251 32.9129 38.0757 32.7627 37.9422C32.6208 37.8087 32.5123 37.7002 32.4372 37.6084L30.9016 39.2274L31.0602 39.4194C31.1687 39.5613 31.3439 39.7198 31.586 39.9034C31.8363 40.0871 32.1201 40.2623 32.4456 40.4459C32.7711 40.6295 33.1967 40.7881 33.7141 40.9216C34.2315 41.0552 34.774 41.1136 35.3415 41.1136C36.6935 41.1136 37.7868 40.7213 38.6214 39.9285C39.456 39.1356 39.8649 38.1342 39.8649 36.924C39.8649 35.7723 39.4893 34.8209 38.7215 34.0531C37.9621 33.2936 37.0107 32.9097 35.859 32.9097Z" fill="white"/>
</svg>
