<svg width="71" height="70" viewBox="0 0 71 70" fill="none" xmlns="http://www.w3.org/2000/svg">
<circle cx="35.3828" cy="35" r="35" fill="#00C65E"/>
<rect x="10.4839" y="33.4802" width="14.6607" height="30.0505" rx="1.01514" transform="rotate(-51.887 10.4839 33.4802)" fill="#00C65E" stroke="white" stroke-width="2.03028"/>
<path d="M19.9655 33.1381L18.0856 31.7042L19.1116 30.3591C19.3155 30.0917 19.5778 29.9382 19.8944 29.8956C20.2111 29.853 20.5046 29.9316 20.772 30.1356C21.0394 30.3396 21.1929 30.6019 21.2355 30.9185C21.2751 31.2391 21.1924 31.5296 20.9915 31.793L19.9655 33.1381ZM21.8097 32.4171C22.2116 31.8902 22.3788 31.3233 22.3075 30.7133C22.2371 30.1103 21.9519 29.6151 21.457 29.2376C20.9621 28.86 20.409 28.716 19.8049 28.8045C19.2017 28.9 18.6952 29.2081 18.2933 29.735L16.5794 31.9821L19.2775 34.0401L18.7782 34.6947L19.5965 35.3188L20.0957 34.6642L20.6665 35.0996L20.1672 35.7542L20.9855 36.3783L21.4847 35.7237L22.303 36.3478L22.991 35.4457L22.1728 34.8216L23.5732 32.9856L22.755 32.3615L21.3545 34.1975L20.7838 33.7622L21.8097 32.4171Z" fill="white"/>
<rect x="27.2775" y="19.5984" width="14.6607" height="30.0505" rx="1.01514" transform="rotate(-0.181353 27.2775 19.5984)" fill="#00C65E" stroke="white" stroke-width="2.03028"/>
<path d="M33.0886 27.3445L33.0489 24.9805L34.7404 24.9522C35.0767 24.9465 35.3597 25.0573 35.5893 25.2793C35.819 25.5014 35.9391 25.7806 35.9448 26.1168C35.9504 26.4531 35.8397 26.7361 35.6176 26.9658C35.3905 27.1955 35.1113 27.3106 34.78 27.3162L33.0886 27.3445ZM34.7973 28.3451C35.4598 28.334 36.0084 28.114 36.4429 27.6799C36.8725 27.251 37.0845 26.7203 37.0741 26.0979C37.0637 25.4755 36.834 24.9522 36.3902 24.5329C35.9414 24.1187 35.3857 23.9121 34.7232 23.9232L31.8974 23.9706L31.9542 27.3635L31.1311 27.3773L31.1483 28.4063L31.9715 28.3925L31.9835 29.1102L31.1603 29.124L31.1776 30.1529L32.0007 30.1392L32.018 31.1681L33.1523 31.1491L33.1351 30.1201L35.4439 30.0815L35.4266 29.0525L33.1178 29.0912L33.1058 28.3735L34.7973 28.3451Z" fill="white"/>
<rect x="49.2313" y="23.5389" width="14.6607" height="30.0505" rx="1.01514" transform="rotate(54.1804 49.2313 23.5389)" fill="#00C65E" stroke="white" stroke-width="2.03028"/>
<path d="M45.1418 34.7078L47.0859 33.3622L48.0486 34.7532C48.2401 35.0297 48.3051 35.3266 48.2479 35.6409C48.1908 35.9552 48.0253 36.2101 47.7488 36.4015C47.4722 36.5929 47.1754 36.658 46.8611 36.6008C46.5439 36.5395 46.2931 36.3712 46.1045 36.0988L45.1418 34.7078ZM45.2584 36.6845C45.6355 37.2293 46.1231 37.5633 46.7254 37.6837C47.3207 37.8029 47.8798 37.6845 48.3916 37.3302C48.9034 36.976 49.2111 36.4944 49.3134 35.8924C49.4087 35.2892 49.2719 34.7123 48.8948 34.1675L47.2863 31.8436L44.4961 33.7749L44.0275 33.098L43.1814 33.6837L43.6499 34.3606L43.0597 34.7692L42.5911 34.0922L41.745 34.6779L42.2135 35.3548L41.3674 35.9405L42.013 36.8733L42.8592 36.2877L44.1734 38.1864L45.0195 37.6007L43.7053 35.702L44.2956 35.2934L45.2584 36.6845Z" fill="white"/>
</svg>
