<svg width="81" height="48" viewBox="0 0 81 48" fill="none" xmlns="http://www.w3.org/2000/svg">
<path d="M-0.00146484 14.0036H11.0568V39.2351H15.8103C26.4766 39.2351 31.8077 34.0527 31.8035 23.6879C31.8035 13.5348 26.854 8.46012 16.9549 8.46384H14.958V0.25L16.3858 0.25C24.9005 0.25 31.5158 2.29324 36.2318 6.37973C40.9479 10.4662 43.3038 16.1557 43.2996 23.4482C43.2996 31.2126 40.8582 37.1565 35.9754 41.2802C31.0926 45.4038 24.0248 47.4786 14.7721 47.5046H-0.00146484V14.0036Z" fill="#00C65E"/>
<path d="M11.063 0.25H-0.00146484V10.1077H11.063V0.25Z" fill="#00C65E"/>
<path d="M53.8775 20.4335H50.0861V34.1758H53.8775V20.4335ZM54.1513 16.5188C54.1513 15.8892 53.946 15.3691 53.549 14.9858C53.1384 14.6026 52.5909 14.411 51.9065 14.411C51.2769 14.411 50.7704 14.6026 50.3872 14.9858C50.0039 15.3691 49.8123 15.8892 49.8123 16.5188C49.8123 17.1485 49.9903 17.6549 50.3735 18.0382C50.7568 18.4214 51.2632 18.613 51.9065 18.613C52.5909 18.613 53.1384 18.4214 53.549 18.0382C53.946 17.6549 54.1513 17.1485 54.1513 16.5188ZM61.5973 14.5478H57.8058V34.1758H61.5973V14.5478ZM68.6053 35.0107C68.1536 36.051 67.3598 36.5574 66.2237 36.5574C65.6625 36.5574 65.1971 36.4753 64.8276 36.2837V39.6371L65.1013 39.7329C65.2929 39.8151 65.5804 39.8835 65.991 39.9519C66.3879 40.0341 66.7986 40.0614 67.2092 40.0614C69.5087 40.0614 71.2744 38.3779 72.5337 35.0107L77.995 20.4335H74.0803L70.8501 29.5494L67.6335 20.4335H63.7052L69.0296 34.0389L68.6053 35.0107Z" fill="#00C65E"/>
</svg>
