<svg width="454" height="400" viewBox="0 0 454 400" fill="none" xmlns="http://www.w3.org/2000/svg">
<path opacity="0.2" d="M278.548 95.2131C320.688 102.388 343.192 148.959 322.627 186.433L255.312 309.096C230.998 353.401 166.793 351.738 144.805 306.234L74.1854 160.088C52.1976 114.584 90.793 63.2469 140.614 71.7291L278.548 95.2131Z" fill="#FFB762"/>
<rect width="12.0856" height="33.2122" rx="6.04282" transform="matrix(-0.621418 -0.78348 0.787664 -0.616105 339.924 183.188)" fill="#FFB762"/>
<rect width="12.0856" height="33.2122" rx="6.04282" transform="matrix(-0.621418 -0.78348 0.787664 -0.616105 173.652 318.889)" fill="#FFB762"/>
<rect width="12.1253" height="33.1036" rx="6.06264" transform="matrix(0.787664 -0.616105 0.621418 0.78348 191.16 153.41)" fill="#FFB762"/>
<rect width="22.1758" height="116.919" rx="6.4409" transform="matrix(0.787664 -0.616105 0.621418 0.78348 294.725 301.014)" fill="#00C65E"/>
<rect width="16.1671" height="116.919" rx="6.4409" transform="matrix(0.787664 -0.616105 0.621418 0.78348 300.836 294.931)" fill="#CCEFDB"/>
<path d="M223.951 195.413C254.552 171.478 298.835 176.686 322.866 206.985C346.897 237.283 341.622 281.255 311.022 305.191C280.421 329.126 236.138 323.918 212.107 293.62C188.076 263.321 193.351 219.349 223.951 195.413Z" fill="white" stroke="#00C65E" stroke-width="12.8818"/>
<path d="M230.517 193.273C259.582 170.538 301.64 175.487 324.463 204.262C347.286 233.038 342.277 274.801 313.213 297.535C284.148 320.269 242.09 315.321 219.267 286.546C196.443 257.77 201.452 216.007 230.517 193.273Z" fill="white" stroke="#CCEFDB" stroke-width="12.8818"/>
<rect width="12.1055" height="24.6789" rx="6.05274" transform="matrix(-0.996562 -0.116731 0.119185 -0.989461 284.307 152.522)" fill="#FFB762"/>
<rect width="12.1055" height="24.6789" rx="6.05274" transform="matrix(0.119185 -0.989461 -0.996562 -0.116731 178.013 235.664)" fill="#FFB762"/>
<rect width="12.1055" height="24.6789" rx="6.05274" transform="matrix(-0.119185 0.989461 0.996562 0.116731 357.207 240.645)" fill="#FFB762"/>
<rect width="12.1055" height="24.6789" rx="6.05274" transform="matrix(0.996562 0.116731 -0.119185 0.989461 251.049 326.845)" fill="#FFB762"/>
<path d="M252.156 252.462L241.491 237.925L251.195 229.719C253.124 228.088 255.258 227.434 257.572 227.727C259.887 228.02 261.817 229.188 263.334 231.256C264.851 233.324 265.457 235.613 265.18 238.097C264.875 240.606 263.76 242.649 261.86 244.256L252.156 252.462ZM266.502 250.583C270.303 247.369 272.519 243.394 273.128 238.628C273.731 233.917 272.621 229.605 269.813 225.777C267.005 221.95 263.361 219.781 258.931 219.276C254.495 218.826 250.354 220.178 246.553 223.392L230.342 237.101L245.649 257.965L240.926 261.959L245.568 268.286L250.29 264.293L253.528 268.706L248.806 272.7L253.448 279.027L258.17 275.033L262.812 281.361L269.319 275.857L264.678 269.53L277.923 258.329L273.281 252.002L260.036 263.203L256.798 258.789L266.502 250.583Z" fill="#00C65E"/>
<path d="M401.111 202.699C402.628 201.516 406.62 192.179 415.017 194.211C423.415 196.243 426.746 209.039 436.309 207.387C443.959 206.065 449.189 200.064 450.847 197.229" stroke="#00C65E" stroke-width="1.48023"/>
<path d="M3.70251 291.19C3.9356 287.58 -4.19735 270.301 9.15337 261.039C22.5041 251.777 44.6495 263.086 54.2785 247.582C61.9818 235.179 60.0839 220.33 58.172 214.455" stroke="#FD9558" stroke-width="2.22035"/>
<path d="M213.815 45.1688C211.633 44.7294 200.429 48.2644 195.882 39.3623C191.335 30.4601 200.054 17.8907 191.395 10.7433C184.468 5.02542 175.259 4.95936 171.52 5.64107" stroke="#FD9558" stroke-width="2.22035"/>
</svg>
