<svg width="116" height="115" viewBox="0 0 116 115" fill="none" xmlns="http://www.w3.org/2000/svg">
<g clip-path="url(#clip0_14172_10177)">
<path opacity="0.2" d="M106.302 89.9774C103.909 107.689 84.7723 117.761 68.8179 109.705L16.596 83.3381C-2.26612 73.8144 -2.49296 46.9617 16.2055 37.1207L76.2605 5.51384C94.959 -4.32715 116.965 11.0634 114.136 32.0032L106.302 89.9774Z" fill="#00C65E"/>
<path d="M82.6564 24.834H17.2946C13.7864 24.834 10.9424 27.6567 10.9424 31.1386V74.8715C10.9424 78.3535 13.7864 81.1762 17.2946 81.1762H82.6564C86.1646 81.1762 89.0086 78.3535 89.0086 74.8715V31.1386C89.0086 27.6567 86.1646 24.834 82.6564 24.834Z" fill="white"/>
<path d="M82.6657 82.0849H17.2947C15.3689 82.0849 13.5217 81.3262 12.1591 79.9754C10.7964 78.6247 10.0296 76.7923 10.0272 74.8809V31.1389C10.0416 29.2303 10.8119 27.4039 12.1717 26.0542C13.5315 24.7046 15.3717 23.94 17.2947 23.9258H82.6657C84.5887 23.94 86.4289 24.7046 87.7887 26.0542C89.1485 27.4039 89.9188 29.2303 89.9332 31.1389V74.8809C89.9308 76.7923 89.164 78.6247 87.8014 79.9754C86.4387 81.3262 84.5916 82.0849 82.6657 82.0849ZM17.2947 25.7609C15.8572 25.7751 14.4826 26.3481 13.4661 27.3571C12.4495 28.366 11.8721 29.7303 11.8578 31.1571V74.8809C11.8745 76.306 12.453 77.668 13.4692 78.675C14.4855 79.682 15.8588 80.2538 17.2947 80.268H82.6657C84.1016 80.2538 85.4749 79.682 86.4912 78.675C87.5075 77.668 88.0859 76.306 88.1026 74.8809V31.1389C88.0883 29.7121 87.5109 28.3478 86.4943 27.3389C85.4778 26.33 84.1032 25.7569 82.6657 25.7427L17.2947 25.7609Z" fill="#00C65E"/>
<path d="M5.0668 81.0596H94.0159C94.1082 81.0596 94.1967 81.0959 94.2619 81.1607C94.3271 81.2254 94.3638 81.3132 94.3638 81.4048V84.2937C94.3638 84.8141 94.1555 85.3132 93.7847 85.6812C93.4139 86.0492 92.911 86.2559 92.3867 86.2559H6.69604C6.17169 86.2559 5.66883 86.0492 5.29806 85.6812C4.92729 85.3132 4.71899 84.8141 4.71899 84.2937V81.423C4.7165 81.3761 4.72366 81.3293 4.74002 81.2853C4.75638 81.2413 4.78161 81.201 4.81415 81.167C4.8467 81.133 4.88589 81.1059 4.92933 81.0875C4.97277 81.069 5.01955 81.0595 5.0668 81.0596Z" fill="#1E7836"/>
<rect x="17.1571" y="34.7153" width="32.3842" height="36.5803" rx="1" fill="#FFB762"/>
<rect x="21.384" y="43.6062" width="2.71195" height="23.9306" rx="1" transform="rotate(-90 21.384 43.6062)" fill="white"/>
<rect x="21.384" y="53.4888" width="2.71195" height="19.0015" rx="1" transform="rotate(-90 21.384 53.4888)" fill="white"/>
<rect x="21.384" y="63.3713" width="2.71195" height="16.2233" rx="1" transform="rotate(-90 21.384 63.3713)" fill="white"/>
<path d="M43.1884 64.3838L35.562 61.5633C35.5076 61.5431 35.4485 61.5388 35.3917 61.5509C35.3349 61.563 35.2828 61.591 35.2416 61.6316C35.2004 61.6722 35.1718 61.7237 35.1591 61.78C35.1465 61.8362 35.1504 61.8949 35.1703 61.949L38.0272 69.5305C38.0494 69.5892 38.0895 69.6396 38.1419 69.6746C38.1943 69.7096 38.2564 69.7276 38.3195 69.7259C38.3827 69.7243 38.4438 69.7031 38.4942 69.6654C38.5447 69.6276 38.582 69.5752 38.601 69.5154L39.4177 66.8788L42.1866 69.5606C42.2434 69.6167 42.3204 69.6482 42.4006 69.6482C42.4808 69.6482 42.5577 69.6167 42.6146 69.5606L43.3281 68.8525C43.3846 68.796 43.4164 68.7196 43.4164 68.64C43.4164 68.5604 43.3846 68.4841 43.3281 68.4276L40.5684 65.7578L43.1884 64.9533C43.2481 64.9328 43.2998 64.8944 43.3364 64.8433C43.3731 64.7923 43.3927 64.7312 43.3927 64.6685C43.3927 64.6059 43.3731 64.5448 43.3364 64.4937C43.2998 64.4427 43.2481 64.4043 43.1884 64.3838Z" fill="#00C65E"/>
<rect width="1.90606" height="5.23798" rx="0.95303" transform="matrix(-0.533982 -0.845496 0.849088 -0.528252 80.4994 44.1931)" fill="#FFB762"/>
<rect width="1.90606" height="5.23798" rx="0.95303" transform="matrix(-0.533982 -0.845496 0.849088 -0.528252 52.1101 61.855)" fill="#FFB762"/>
<rect width="1.91231" height="5.22086" rx="0.956156" transform="matrix(0.849088 -0.528252 0.533982 0.845496 57.6497 36.2053)" fill="#FFB762"/>
<rect width="2.54975" height="10.1532" rx="1" transform="matrix(0.849088 -0.528252 0.533982 0.845496 72.4585 60.248)" fill="#CCEFDB"/>
<path d="M63.14 43.1064C68.0887 40.0279 74.6096 41.5162 77.7073 46.421C80.8049 51.3257 79.3124 57.7995 74.3641 60.8783C69.4154 63.9571 62.8938 62.4691 59.796 57.5643C56.6982 52.6594 58.1913 46.1852 63.14 43.1064Z" fill="white" stroke="#CCEFDB" stroke-width="2"/>
<rect width="1.90919" height="3.89218" rx="0.954595" transform="matrix(-0.978341 -0.222735 0.224415 -0.971018 72.2708 37.6389)" fill="#FFB762"/>
<rect width="1.90919" height="3.89218" rx="0.954595" transform="matrix(0.224415 -0.971018 -0.978341 -0.222735 54.1987 48.8806)" fill="#FFB762"/>
<rect width="1.90919" height="3.89218" rx="0.954595" transform="matrix(-0.224415 0.971018 0.978341 0.222735 82.0311 53.2612)" fill="#FFB762"/>
<rect width="1.90919" height="3.89218" rx="0.954595" transform="matrix(0.978341 0.222735 -0.224415 0.971018 64.1122 64.4092)" fill="#FFB762"/>
<path d="M68.1566 52.2167L66.5962 49.7458L68.3774 48.6377C68.7315 48.4174 69.1037 48.3539 69.4906 48.442C69.8776 48.5301 70.1847 48.7482 70.4067 49.0997C70.6287 49.4512 70.6926 49.8206 70.6039 50.2046C70.5098 50.5919 70.2867 50.8915 69.9379 51.1085L68.1566 52.2167ZM70.6171 52.184C71.3148 51.7499 71.757 51.1678 71.9405 50.4326C72.1221 49.7058 72.0068 49.0103 71.5959 48.3598C71.1851 47.7093 70.6046 47.3032 69.8632 47.1433C69.1198 46.992 68.3959 47.1282 67.6982 47.5622L64.7224 49.4136L66.9621 52.9599L66.0953 53.4992L66.7745 54.5746L67.6413 54.0353L68.1151 54.7855L67.2483 55.3248L67.9275 56.4002L68.7943 55.8609L69.4735 56.9363L70.668 56.1932L69.9888 55.1177L72.4202 53.6051L71.741 52.5297L69.3096 54.0423L68.8358 53.2921L70.6171 52.184Z" fill="#00C65E"/>
</g>
<defs>
<clipPath id="clip0_14172_10177">
<rect width="115" height="115" fill="white" transform="translate(0.617188)"/>
</clipPath>
</defs>
</svg>
