<svg width="116" height="116" viewBox="0 0 116 116" fill="none" xmlns="http://www.w3.org/2000/svg">
<g clip-path="url(#clip0_14172_10213)">
<path opacity="0.2" d="M105.213 90.7386C102.82 108.45 83.6824 118.522 67.7281 110.467L15.5061 84.0993C-3.35596 74.5756 -3.5828 47.7229 15.1157 37.8819L75.1707 6.27507C93.8691 -3.56592 115.875 11.8246 113.046 32.7644L105.213 90.7386Z" fill="#00C65E"/>
<rect x="72.0743" y="29.5432" width="29.3776" height="28.4943" rx="1" transform="rotate(2.21828 72.0743 29.5432)" fill="white"/>
<path d="M53.2173 41.2083C52.9858 33.7343 54.13 32.1626 55.5085 31.5145C56.4508 31.0715 58.8592 31.1099 60.9692 32.1543C63.5364 33.4248 68.9962 39.1495 71.9257 42.6414L67.0341 48.4268L69.9246 51.2551L69.5935 59.8044L54.5114 60.0896C53.6144 53.6734 53.3986 47.0592 53.2173 41.2083Z" fill="#00C65E"/>
<path d="M54.5115 60.0898L69.5935 59.8046L69.4977 62.2796L83.4287 70.5233C84.7843 71.5378 85.4278 72.5315 85.7059 75.2608C85.984 77.9901 87.7595 91.052 88.6125 97.2418C89.4499 97.2742 91.5731 97.1654 92.1641 98.3167C92.7109 99.3818 92.8857 101.604 92.9739 102.631L81.4455 104.363L76.8032 76.9846C73.296 75.6928 65.1419 72.53 65.1419 72.53C65.1419 72.53 56.8673 69.9612 54.698 61.2132L54.5115 60.0898Z" fill="#FFB762"/>
<path d="M50.8062 79.559L55.2517 62.9765C56.4462 65.294 59.8171 70.3311 63.7451 71.9399L57.9108 84.5631L40.3526 96.9837C40.7888 97.6964 41.621 99.2418 41.576 100.403C41.4946 102.505 38.6474 103.328 37.2114 104.115L30.7359 93.4816L50.8062 79.559Z" fill="#F1A74F"/>
<path d="M50.8502 17.9357C50.7123 15.4339 50.714 14.2971 51.7958 12.9877C54.6746 9.50327 62.5365 11.048 64.7809 12.392C66.3714 13.3445 66.9705 14.8791 67.2993 16.8291C67.5623 18.3891 67.7888 23.176 66.9561 25.6886C66.394 27.3845 64.0964 30.8627 59.4026 31.2078C54.7087 31.5529 52.5561 28.2433 52.0665 26.5454C51.4338 23.8732 50.9997 20.6483 50.8502 17.9357Z" fill="#FBCFB1"/>
<path d="M50.8502 17.9357C50.7123 15.4339 50.714 14.2971 51.7958 12.9877C54.6746 9.50327 62.5365 11.048 64.7809 12.392C66.3714 13.3445 67.164 14.9774 67.3959 17.5484L50.8502 17.9357Z" fill="#00C65E"/>
<path d="M66.822 16.5588L72.5132 16.3953" stroke="#00C65E" stroke-width="2" stroke-linecap="round"/>
<path d="M28.8689 44.8066L44.8227 44.8066" stroke="#00C65E" stroke-width="3" stroke-linecap="round"/>
<path d="M43.9796 51.53L54.7877 51.53" stroke="white" stroke-width="2" stroke-linecap="round"/>
<path d="M16.0025 59.6802L41.7615 59.6799" stroke="#00C65E" stroke-width="3" stroke-linecap="round"/>
<path d="M33.4126 69.4758L47.2179 69.4758" stroke="white" stroke-width="2" stroke-linecap="round"/>
<path d="M73.1845 54.3055L67.0161 48.4188L71.9365 42.6629L75.8581 47.2124L93.2494 48.4858L95.6391 47.4291L100.779 47.6282L100.504 54.7138C98.6867 54.76 94.8548 54.7748 94.0673 54.4644C93.2797 54.1541 92.1091 54.272 91.6222 54.3697L73.1845 54.3055Z" fill="#FBCFB1"/>
<path d="M62.4947 43.7848C62.6769 43.5773 62.9928 43.5568 63.2004 43.739L67.6724 47.6606L67.0154 48.419L62.5406 44.4904C62.3331 44.3083 62.3126 43.9923 62.4947 43.7848Z" fill="#1E7836"/>
<path d="M83.5389 29.906L90.6874 30.1829L90.392 37.8066C90.3707 38.3584 89.906 38.7885 89.3541 38.7671L84.2041 38.5676C83.6522 38.5462 83.2222 38.0815 83.2436 37.5297L83.5389 29.906Z" fill="#FD9558"/>
</g>
<defs>
<clipPath id="clip0_14172_10213">
<rect width="115" height="115" fill="white" transform="translate(0.726562 0.397949)"/>
</clipPath>
</defs>
</svg>
