<svg width="116" height="116" viewBox="0 0 116 116" fill="none" xmlns="http://www.w3.org/2000/svg">
<g clip-path="url(#clip0_14172_10234)">
<path opacity="0.2" d="M105.546 90.9266C103.153 108.638 84.0154 118.71 68.0611 110.655L15.8391 84.2873C-3.02295 74.7636 -3.24979 47.9109 15.4487 38.0699L75.5037 6.46305C94.2021 -3.37793 116.208 12.0126 113.379 32.9524L105.546 90.9266Z" fill="#00C65E"/>
<rect x="10.1875" y="15.4824" width="55.6529" height="63.338" rx="1" fill="white"/>
<rect x="16.7575" y="27.8667" width="2.5" height="41.1253" rx="1" transform="rotate(-90 16.7575 27.8667)" fill="#FD9558"/>
<rect x="16.7575" y="38.0098" width="2.5" height="23.0779" rx="1" transform="rotate(-90 16.7575 38.0098)" fill="#FD9558"/>
<rect x="16.7575" y="48.1543" width="2.5" height="19.3772" rx="1" transform="rotate(-90 16.7575 48.1543)" fill="#FD9558"/>
<rect x="16.7575" y="58.2974" width="2.5" height="23.0779" rx="1" transform="rotate(-90 16.7575 58.2974)" fill="#FD9558"/>
<rect x="40.5875" y="50.2494" width="13.7986" height="27.4435" transform="rotate(-60 40.5875 50.2494)" fill="#0FC645" stroke="white"/>
<path d="M48.6955 50.6889L46.8591 49.6778L47.5825 48.3639C47.7264 48.1027 47.9362 47.9337 48.2083 47.8549C48.4803 47.776 48.748 47.8066 49.0093 47.9504C49.2705 48.0942 49.4394 48.3041 49.5183 48.5761C49.595 48.8521 49.5606 49.1177 49.4189 49.375L48.6955 50.6889ZM50.2181 49.815C50.5015 49.3004 50.5739 48.7814 50.4314 48.2558C50.2906 47.7363 49.9757 47.3393 49.4923 47.0731C49.0088 46.807 48.505 46.7531 47.9868 46.9098C47.4704 47.0726 47.0666 47.4092 46.7833 47.9238L45.5747 50.1189L48.2103 51.57L47.8583 52.2094L48.6575 52.6495L49.0096 52.0101L49.5671 52.3171L49.2151 52.9565L50.0143 53.3965L50.3664 52.7571L51.1656 53.1972L51.6508 52.316L50.8515 51.876L51.839 50.0825L51.0397 49.6425L50.0523 51.4359L49.4947 51.1289L50.2181 49.815Z" fill="white"/>
<rect x="44.0997" y="38.6156" width="13.7986" height="27.4435" transform="rotate(-30 44.0997 38.6156)" fill="#0FC645" stroke="white"/>
<path d="M51.1425 43.653L50.0698 41.8519L51.3584 41.0844C51.6146 40.9318 51.8812 40.8922 52.1557 40.9618C52.4303 41.0314 52.6458 41.1931 52.7984 41.4493C52.951 41.7055 52.9906 41.9721 52.921 42.2466C52.8476 42.5235 52.6835 42.7351 52.4312 42.8854L51.1425 43.653ZM52.8981 43.6693C53.4028 43.3687 53.7278 42.9576 53.8707 42.4321C54.012 41.9128 53.9412 41.4111 53.6587 40.9369C53.3763 40.4627 52.9689 40.1614 52.4427 40.0346C51.9148 39.9138 51.3963 39.9999 50.8915 40.3005L48.7387 41.5828L50.2783 44.1677L49.6512 44.5412L50.1181 45.3251L50.7452 44.9516L51.0709 45.4984L50.4438 45.8719L50.9107 46.6558L51.5378 46.2823L52.0047 47.0662L52.8689 46.5515L52.402 45.7676L54.161 44.7199L53.6941 43.936L51.9351 44.9837L51.6094 44.4369L52.8981 43.6693Z" fill="white"/>
<rect x="52.2017" y="31.82" width="13.7986" height="27.4435" transform="rotate(-4.13873 52.2017 31.82)" fill="#0FC645" stroke="white"/>
<path d="M59.1559 40.4764L59.0459 38.383L60.5438 38.3043C60.8415 38.2887 61.0958 38.3778 61.3063 38.5673C61.5169 38.7568 61.6322 39.0003 61.6478 39.2981C61.6635 39.5959 61.5743 39.8502 61.3848 40.0607C61.1909 40.2715 60.9471 40.3823 60.6538 40.3977L59.1559 40.4764ZM60.7017 41.3089C61.2883 41.278 61.7674 41.0657 62.1387 40.6673C62.5058 40.2737 62.6768 39.7967 62.6478 39.2456C62.6189 38.6944 62.3988 38.238 61.9923 37.8806C61.5815 37.5278 61.0826 37.3623 60.4959 37.3932L57.9936 37.5247L58.1515 40.5292L57.4225 40.5675L57.4704 41.4787L58.1993 41.4404L58.2327 42.076L57.5038 42.1143L57.5517 43.0254L58.2806 42.9871L58.3285 43.8982L59.333 43.8455L59.2851 42.9343L61.3296 42.8269L61.2817 41.9157L59.2372 42.0232L59.2038 41.3876L60.7017 41.3089Z" fill="white"/>
<path d="M82.743 77.9186V61.0701C79.9148 60.2326 78.2067 58.4545 77.7134 58.027C77.2201 57.5994 75.6415 54.9682 73.7998 53.1268C72.3265 51.6537 69.4369 50.934 68.1762 50.7583L67.9041 55.5269C67.9041 55.5269 65.9992 55.0471 59.1324 54.9682C52.2657 54.8893 54.0569 59.4518 55.8109 61.7429C53.2589 64.1897 54.638 67.1254 55.6465 68.2874C53.5943 70.7605 55.6464 73.2642 56.9289 74.207C56.9289 74.207 54.2249 76.7776 56.9289 79.8495C57.9691 81.0312 69.18 80.0902 73.5941 79.4485C77.1253 78.9351 80.7906 77.9186 82.743 77.9186Z" fill="#FBCFB1"/>
<rect x="82.2731" y="58.6584" width="7.27361" height="21.7574" fill="#00C65E"/>
<path d="M18.3962 64.7811C18.6805 63.4759 19.536 61.2997 20.684 63.0366C21.3479 64.0411 21.8706 65.7514 22.0602 67.5452M22.0602 67.5452C22.2805 69.6286 22.0513 71.8246 21.0718 73.1583C19.249 75.6404 18.3172 70.7744 22.0602 67.5452ZM22.0602 67.5452C23.3208 65.8095 25.7877 62.9818 25.5706 65.557C25.2991 68.7759 22.5455 72.3827 24.7174 71.1804C26.8892 69.9782 29.9918 64.665 29.9918 66.7592C29.9918 68.8535 32.086 72.6542 37.1665 68.2717" stroke="#0FC645"/>
</g>
<defs>
<clipPath id="clip0_14172_10234">
<rect width="115" height="115" fill="white" transform="translate(0.382812 0.869141)"/>
</clipPath>
</defs>
</svg>
