<svg width="100" height="100" viewBox="0 0 100 100" fill="none" xmlns="http://www.w3.org/2000/svg">
<ellipse cx="49.8983" cy="49.9682" rx="37.8061" ry="38.0712" transform="rotate(-22.1683 49.8983 49.9682)" fill="white"/>
<rect x="25.218" y="38.0156" width="29.5027" height="32.7808" rx="3.27807" transform="rotate(-22.1683 25.218 38.0156)" fill="#00C65E"/>
<path d="M50.9264 37.8111L42.8469 41.1031C41.8409 41.5129 41.3577 42.6607 41.7675 43.6667L42.9903 46.6677C43.4002 47.6737 42.917 48.8214 41.9112 49.2313L39.307 50.2926C38.3011 50.7025 37.8179 51.8502 38.2278 52.8561L40.8764 59.3568" stroke="white" stroke-width="1.31123"/>
<path d="M40.619 49.7517L50.5418 45.7087C51.5477 45.2989 52.6955 45.7821 53.1054 46.788L56.2336 54.4658" stroke="white" stroke-width="1.31123"/>
<circle cx="50.9264" cy="37.8106" r="1.04063" transform="rotate(157.832 50.9264 37.8106)" fill="white" stroke="white" stroke-width="0.655615"/>
<circle cx="43.6076" cy="48.5363" r="2.10493" transform="rotate(157.832 43.6076 48.5363)" fill="white"/>
<circle cx="41.0465" cy="59.7725" r="1.04063" transform="rotate(157.832 41.0465 59.7725)" fill="white" stroke="white" stroke-width="0.655615"/>
<path d="M38.2063 52.7998L34.3294 43.2848" stroke="white" stroke-width="1.31123"/>
<circle cx="34.0146" cy="42.5182" r="2.19838" transform="rotate(157.832 34.0146 42.5182)" fill="white"/>
<circle cx="55.612" cy="52.9421" r="2.19838" transform="rotate(157.832 55.612 52.9421)" fill="white"/>
<circle cx="51.0996" cy="30.3031" r="0.655615" transform="rotate(-22.1683 51.0996 30.3031)" fill="#363A45"/>
<circle cx="28.637" cy="39.4555" r="0.655615" transform="rotate(-22.1683 28.637 39.4555)" fill="#363A45"/>
<circle cx="61.4898" cy="55.8041" r="0.655615" transform="rotate(-22.1683 61.4898 55.8041)" fill="#363A45"/>
<circle cx="39.0272" cy="64.9565" r="0.655615" transform="rotate(-22.1683 39.0272 64.9565)" fill="#363A45"/>
</svg>
