<svg width="98" height="93" viewBox="0 0 98 93" fill="none" xmlns="http://www.w3.org/2000/svg">
<path d="M55.7357 91.9728L42.7357 83.8829L29.7357 91.9728L31.7657 40.9229H53.7157L55.7357 91.9728Z" fill="#FA9458"/>
<path d="M70.5658 41.6233C70.5658 44.2033 62.6258 45.5033 61.8658 47.8333C61.1058 50.1633 66.7158 55.9633 65.2458 57.9733C63.7758 59.9833 56.5858 56.4133 54.5558 57.8933C52.5258 59.3733 53.7558 67.3033 51.3358 68.0833C48.9158 68.8633 45.3358 61.7233 42.7358 61.7233C40.1358 61.7233 36.4758 68.8433 34.1358 68.0833C31.7958 67.3233 32.9158 59.3533 30.9158 57.8933C28.9158 56.4333 21.6958 60.0133 20.2158 57.9733C18.7358 55.9333 24.3958 50.2533 23.6158 47.8333C22.8358 45.4133 14.9158 44.2033 14.9158 41.6233C14.9158 39.0433 22.8558 37.7333 23.6158 35.4033C24.3758 33.0733 18.7658 27.2733 20.2258 25.2633C21.6858 23.2533 28.9158 26.8233 30.9158 25.3533C32.9158 23.8833 31.7258 15.9333 34.1358 15.1533C36.5458 14.3733 40.1358 21.5133 42.7358 21.5133C45.3358 21.5133 49.0058 14.3933 51.3358 15.1533C53.6658 15.9133 52.5458 23.8833 54.5558 25.3533C56.5658 26.8233 63.7758 23.2233 65.2458 25.2633C66.7158 27.3033 61.0858 32.9833 61.9158 35.4033C62.7458 37.8233 70.5658 39.0333 70.5658 41.6233Z" fill="#FFB663"/>
<path d="M42.7358 54.0831C49.6172 54.0831 55.1958 48.5046 55.1958 41.6231C55.1958 34.7416 49.6172 29.1631 42.7358 29.1631C35.8543 29.1631 30.2758 34.7416 30.2758 41.6231C30.2758 48.5046 35.8543 54.0831 42.7358 54.0831Z" fill="white"/>
<path d="M66.7958 21.5337C65.9454 20.7402 64.8148 20.3167 63.6523 20.356C62.4899 20.3954 61.3906 20.8945 60.5958 21.7437L43.6958 40.0337L38.9158 33.3137C38.214 32.431 37.1995 31.8523 36.0826 31.6973C34.9657 31.5424 33.832 31.8232 32.9165 32.4816C32.001 33.1399 31.374 34.1253 31.1653 35.2334C30.9566 36.3415 31.1824 37.4875 31.7958 38.4337L39.4258 49.0137C39.6487 49.4517 39.9504 49.845 40.3158 50.1737C41.0665 50.8705 42.0422 51.275 43.0658 51.3137C43.8153 51.3768 44.5679 51.2375 45.2452 50.9103C45.9224 50.5831 46.4994 50.08 46.9158 49.4537L67.0158 27.7437C67.8086 26.8903 68.2306 25.7573 68.1894 24.5932C68.1482 23.4291 67.647 22.3288 66.7958 21.5337Z" fill="#35B661"/>
</svg>
