<svg width="101" height="99" viewBox="0 0 101 99" fill="none" xmlns="http://www.w3.org/2000/svg">
<path d="M56.0545 42.9C63.4363 42.9 69.4205 36.9158 69.4205 29.534C69.4205 22.1521 63.4363 16.168 56.0545 16.168C48.6726 16.168 42.6885 22.1521 42.6885 29.534C42.6885 36.9158 48.6726 42.9 56.0545 42.9Z" fill="#FACFB0"/>
<path d="M54.0078 42.9014H58.0928C60.9186 42.9014 63.7168 43.458 66.3276 44.5394C68.9383 45.6208 71.3105 47.2058 73.3087 49.204C75.3069 51.2022 76.8919 53.5744 77.9733 56.1851C79.0547 58.7959 79.6113 61.5941 79.6113 64.4199V68.9336C79.6113 71.2999 78.6713 73.5693 76.9981 75.2426C75.3248 76.9159 73.0554 77.8559 70.689 77.8559H41.4028C39.0364 77.8559 36.767 76.9159 35.0938 75.2426C33.4205 73.5693 32.4805 71.2999 32.4805 68.9336V64.4287C32.4793 61.6013 33.0354 58.8015 34.1168 56.1892C35.1982 53.5768 36.7839 51.2032 38.7831 49.204C40.7823 47.2048 43.1559 45.6191 45.7683 44.5377C48.3806 43.4563 51.1804 42.9002 54.0078 42.9014Z" fill="#35B661"/>
<path d="M41.2982 73.2547C40.0965 73.2547 38.944 72.7773 38.0942 71.9275C37.2445 71.0778 36.7671 69.9253 36.7671 68.7235V60.5272C36.7671 59.3255 37.2445 58.173 38.0942 57.3232C38.944 56.4735 40.0965 55.9961 41.2982 55.9961C42.5 55.9961 43.6525 56.4735 44.5022 57.3232C45.352 58.173 45.8294 59.3255 45.8294 60.5272V68.6973C45.8328 69.2945 45.7182 69.8866 45.492 70.4393C45.2659 70.9921 44.9326 71.4947 44.5115 71.9183C44.0904 72.3418 43.5898 72.6779 43.0383 72.9073C42.4868 73.1366 41.8955 73.2547 41.2982 73.2547V73.2547Z" stroke="#FFB762" stroke-width="4.18"/>
<path d="M53.693 89.1654H27.4509C26.8023 89.1654 26.16 89.0375 25.5609 88.789C24.9618 88.5406 24.4175 88.1764 23.9593 87.7173C23.501 87.2583 23.1378 86.7134 22.8904 86.1138C22.643 85.5142 22.5162 84.8718 22.5174 84.2231V66.7284C22.5151 66.0776 22.6415 65.4327 22.8895 64.831C23.1375 64.2293 23.5021 63.6825 23.9623 63.2223C24.4225 62.7621 24.9692 62.3975 25.571 62.1495C26.1727 61.9015 26.8176 61.7751 27.4684 61.7774H53.7105C54.3613 61.7751 55.0062 61.9015 55.6079 62.1495C56.2096 62.3975 56.7564 62.7621 57.2166 63.2223C57.6768 63.6825 58.0414 64.2293 58.2894 64.831C58.5374 65.4327 58.6638 66.0776 58.6615 66.7284V84.2231C58.6627 84.8747 58.5348 85.5201 58.2852 86.1219C58.0356 86.7238 57.6692 87.2703 57.2073 87.7298C56.7453 88.1893 56.1969 88.5527 55.5938 88.7991C54.9906 89.0455 54.3446 89.17 53.693 89.1654Z" fill="#FFB762"/>
<path d="M54.41 86.4276H28.9552C28.3905 86.4299 27.8309 86.3204 27.3088 86.1054C26.7867 85.8903 26.3123 85.5741 25.913 85.1748C25.5137 84.7755 25.1974 84.3011 24.9824 83.779C24.7674 83.2568 24.6579 82.6973 24.6602 82.1326V68.9591C24.6579 68.3944 24.7674 67.8349 24.9824 67.3127C25.1974 66.7906 25.5137 66.3162 25.913 65.9169C26.3123 65.5176 26.7867 65.2013 27.3088 64.9863C27.8309 64.7713 28.3905 64.6618 28.9552 64.6641H54.41C54.9747 64.6618 55.5342 64.7713 56.0564 64.9863C56.5785 65.2013 57.0529 65.5176 57.4522 65.9169C57.8515 66.3162 58.1677 66.7906 58.3828 67.3127C58.5978 67.8349 58.7073 68.3944 58.705 68.9591V82.1326C58.6848 83.2654 58.2258 84.3461 57.4247 85.1472C56.6235 85.9484 55.5428 86.4074 54.41 86.4276Z" fill="white"/>
<path d="M55.3022 75.3366H28.0629C27.1619 75.3366 26.2978 74.9793 25.6599 74.343C25.022 73.7068 24.6625 72.8436 24.6602 71.9426V65.1459C24.6602 64.2434 25.0187 63.3779 25.6568 62.7398C26.2949 62.1017 27.1604 61.7432 28.0629 61.7432H55.3022C56.2047 61.7432 57.0702 62.1017 57.7083 62.7398C58.3464 63.3779 58.7049 64.2434 58.7049 65.1459V71.9426C58.6958 72.8414 58.3341 73.7007 57.6977 74.3355C57.0613 74.9703 56.2011 75.3298 55.3022 75.3366Z" fill="#FFB762"/>
<path d="M41.7089 77.7844C41.4619 77.7878 41.2167 77.7426 40.9872 77.6513C40.7577 77.56 40.5484 77.4243 40.3713 77.2521C40.1943 77.0799 40.0528 76.8745 39.9552 76.6477C39.8575 76.4208 39.8054 76.1769 39.802 75.9299V72.2998C39.8043 71.8086 40.0004 71.3383 40.3477 70.991C40.695 70.6437 41.1653 70.4476 41.6564 70.4453H41.7089C42.2001 70.4476 42.6704 70.6437 43.0177 70.991C43.365 71.3383 43.5611 71.8086 43.5634 72.2998V75.9299C43.5669 76.1744 43.5214 76.4172 43.4294 76.6437C43.3375 76.8703 43.201 77.0762 43.0281 77.2491C42.8552 77.422 42.6493 77.5585 42.4228 77.6504C42.1962 77.7423 41.9534 77.7879 41.7089 77.7844Z" fill="#FFB762"/>
<path d="M72.9987 25.8H70.1908C68.3888 19.082 62.7555 14.166 56.0725 14.166C49.1446 14.166 43.3364 19.4144 41.7618 26.5436C41.7143 26.7352 41.6908 26.9321 41.6918 27.1296C41.6848 27.2879 41.7098 27.446 41.7655 27.5943C41.8213 27.7426 41.9065 27.8781 42.016 27.9926C42.1256 28.1071 42.2572 28.1981 42.403 28.2603C42.5487 28.3225 42.7056 28.3544 42.864 28.3543L72.9987 28.3018C73.3305 28.3018 73.6486 28.17 73.8832 27.9354C74.1178 27.7008 74.2496 27.3827 74.2496 27.0509C74.2496 26.7191 74.1178 26.401 73.8832 26.1664C73.6486 25.9318 73.3305 25.8 72.9987 25.8Z" fill="#35B661"/>
</svg>
