<svg width="85" height="85" viewBox="0 0 85 85" fill="none" xmlns="http://www.w3.org/2000/svg">
<ellipse cx="42.7575" cy="42.4113" rx="35.1245" ry="35.3708" transform="rotate(-12.946 42.7575 42.4113)" fill="white"/>
<path fill-rule="evenodd" clip-rule="evenodd" d="M31.412 19.0461L54.9588 19.4253C57.5099 19.4664 59.5557 20.8799 59.5283 22.5825L58.9425 58.9563C58.9151 60.6589 56.8248 62.0059 54.2737 61.9648L30.7269 61.5856C28.1758 61.5445 26.13 60.131 26.1574 58.4284L26.7432 22.0545C26.7706 20.3519 28.8609 19.005 31.412 19.0461ZM48.2782 22.2667L37.5492 22.0939C36.9049 22.0835 36.2898 21.9028 35.8391 21.5914C35.3884 21.28 35.1391 20.8635 35.1461 20.4335L35.1674 19.1071L50.81 19.359L50.7887 20.6855C50.7853 20.9015 50.7172 21.1143 50.5885 21.3115C50.4598 21.5086 50.273 21.686 50.0391 21.8333C49.8052 21.9806 49.529 22.0949 49.2265 22.1693C48.9241 22.2437 48.6017 22.2768 48.2782 22.2667Z" fill="#64BFF1"/>
</svg>
