<svg width="121" height="120" viewBox="0 0 121 120" fill="none" xmlns="http://www.w3.org/2000/svg">
<ellipse cx="60.3705" cy="60.1786" rx="31.9535" ry="32.1775" transform="rotate(-14.1864 60.3705 60.1786)" fill="white"/>
<path d="M62.9612 52.0561C68.0293 54.8168 69.8999 61.1632 67.1393 66.2314" stroke="#CCEFDB" stroke-width="2.27071" stroke-linecap="round" stroke-linejoin="round"/>
<path d="M65.4544 47.7117C72.8986 51.7666 75.6461 61.0884 71.5913 68.5325" stroke="#CCEFDB" stroke-width="2.27071" stroke-linecap="round" stroke-linejoin="round"/>
<path d="M61.7165 59.8361L58.6248 47.6057C58.4435 46.8883 57.5272 46.6805 57.0504 47.2464L50.0062 55.6072C49.8178 55.8308 49.7486 56.1315 49.8203 56.415L52.8758 68.5023C52.9475 68.7859 53.1513 69.0176 53.4235 69.1248L63.5939 73.1313C64.2823 73.4025 64.9896 72.7842 64.8082 72.0669L61.7165 59.8361Z" fill="#00C65E"/>
<rect x="42.8417" y="57.6807" width="6.11044" height="13.4127" rx="0.908285" transform="rotate(-14.1864 42.8417 57.6807)" fill="#00C65E"/>
</svg>
