<svg width="101" height="105" viewBox="0 0 101 105" fill="none" xmlns="http://www.w3.org/2000/svg">
<g clip-path="url(#clip0_1690_38663)">
<path opacity="0.2" d="M93.5503 85.9394C91.5822 100.506 75.8438 108.789 62.723 102.164L19.7755 80.4792C4.2633 72.6469 4.07674 50.5632 19.4544 42.4699L68.8437 16.4764C84.2214 8.38315 102.319 21.0404 99.9922 38.2613L93.5503 85.9394Z" fill="#FFB762"/>
<path d="M41.2143 23.3394C37.2181 23.2691 32.7017 19.1022 29.0838 20.2025C25.4659 21.3027 23.9526 27.3424 20.8076 29.5664C17.6627 31.7903 11.4674 30.9826 9.13824 34.061C6.80909 37.1394 9.24465 42.746 7.95593 46.4097C6.66721 50.0733 1.2877 52.9059 1.21676 56.8504C1.14583 60.7949 6.48987 63.9436 7.60124 67.5252C8.71261 71.1069 6.147 76.8072 8.31062 79.9207C10.4743 83.0342 16.7287 82.5192 19.8263 84.825C22.924 87.1309 24.059 93.1589 27.7714 94.423C31.4839 95.6872 36.0476 91.6256 40.0084 91.6958C43.9691 91.766 48.5092 95.933 52.1743 94.8327C55.8395 93.7324 57.2937 87.6927 60.4505 85.4688C63.6073 83.2449 69.7907 84.0525 72.1554 80.9858C74.52 77.9192 72.049 72.3008 73.3377 68.6372C74.6264 64.9736 79.9586 62.1527 80.0295 58.1731C80.1005 54.1934 74.7564 51.0799 73.6451 47.4982C72.5337 43.9165 75.1111 38.228 72.9002 35.1145C70.6893 32.001 64.4822 32.516 61.3845 30.2101C58.2869 27.9043 57.1518 21.8646 53.4394 20.6121C49.7269 19.3597 45.1987 23.4096 41.2143 23.3394Z" fill="#00C65E"/>
<path d="M41.1434 27.1313C37.5965 27.1313 33.5766 23.3624 30.3607 24.3339C27.1448 25.3054 25.797 30.6779 23.0067 32.6209C20.2165 34.5639 14.7306 33.9202 12.6261 36.6474C10.5216 39.3746 12.7206 44.3726 11.5856 47.6266C10.4506 50.8805 5.67408 53.4205 5.5795 56.9904C5.48491 60.5604 10.3087 63.2877 11.2664 66.4831C12.2241 69.6785 9.96587 74.6765 11.9285 77.4857C13.8911 80.2948 19.4125 79.8266 22.1673 81.8633C24.9221 83.8999 25.927 89.2725 29.2612 90.3961C32.5953 91.5198 36.556 87.903 40.1029 87.903C43.6499 87.903 47.6697 91.672 50.8856 90.7005C54.1015 89.729 55.4493 84.3915 58.2396 82.4017C61.0298 80.4119 66.5157 81.1142 68.6203 78.3869C70.7248 75.6597 68.5375 70.6617 69.6607 67.3961C70.7839 64.1304 75.5722 61.6139 75.6668 58.1024C75.7614 54.591 70.9376 51.7935 69.9917 48.6098C69.0459 45.426 71.2805 40.4164 69.3178 37.5955C67.3552 34.7746 61.8456 35.2545 59.0908 33.2296C56.3361 31.2046 55.3193 25.8672 52.0561 24.6967C48.7929 23.5262 44.6903 27.1899 41.1434 27.1313Z" fill="#CCE6D6"/>
<path d="M47.3857 56.8633C47.8514 57.096 48.3016 57.358 48.7335 57.6475C49.3574 58.049 49.9292 58.5246 50.4361 59.0638C51.001 59.728 51.4523 60.4792 51.7721 61.2877C52.1921 62.2683 52.4015 63.3246 52.3869 64.3895C52.3852 65.6503 52.0963 66.8945 51.5415 68.0294C50.9868 69.1643 50.1805 70.1606 49.1828 70.9442C46.8051 72.8638 43.7937 73.8437 40.7293 73.6949C39.2833 73.701 37.842 73.5319 36.4375 73.1916C35.2643 72.9466 34.1279 72.5532 33.0561 72.0211C32.2652 71.577 31.5031 71.0844 30.7743 70.5463C30.2452 70.1957 29.7643 69.7787 29.3437 69.3056L28.8826 68.8023L32.9024 64.6119L33.1862 64.9631C33.4664 65.249 33.7667 65.5149 34.0847 65.759C34.5465 66.1403 35.041 66.481 35.5626 66.7773C36.9386 67.5312 38.4828 67.9335 40.0554 67.9478C41.4841 68.0272 42.8965 67.6135 44.0516 66.7773C44.4921 66.4418 44.8467 66.0086 45.087 65.5125C45.3273 65.0164 45.4464 64.4714 45.4349 63.9213C45.4478 63.3723 45.3305 62.8278 45.0923 62.3318C44.8541 61.8358 44.5017 61.402 44.0634 61.0653C42.9866 60.2441 41.6496 59.8291 40.2919 59.8948H36.9341V54.417H40.0554C41.1918 54.4758 42.3082 54.1032 43.1767 53.3752C43.5629 53.0337 43.8689 52.6125 44.0732 52.1414C44.2774 51.6702 44.375 51.1605 44.359 50.648C44.3703 50.1618 44.2697 49.6794 44.0648 49.2373C43.86 48.7952 43.5563 48.4051 43.1767 48.0963C42.3001 47.3861 41.1864 47.027 40.0554 47.0897C38.9438 47.0836 37.8462 47.3362 36.8513 47.8271C36.0578 48.1896 35.3306 48.68 34.6995 49.2785L34.0256 49.9925L29.9939 46.0129C30.0885 45.8958 30.2186 45.732 30.3959 45.533C30.781 45.1099 31.2002 44.7185 31.6492 44.3625C32.3092 43.8215 33.0221 43.3471 33.7773 42.9462C35.9434 41.9009 38.3197 41.3527 40.7293 41.3426C43.4954 41.2076 46.2147 42.0869 48.367 43.8124C49.2843 44.558 50.02 45.4988 50.5194 46.5647C51.0188 47.6306 51.2692 48.7942 51.2519 49.9691C51.2617 50.8419 51.1011 51.7083 50.7789 52.5208C50.5273 53.2127 50.1595 53.8578 49.6912 54.4287C49.298 54.8813 48.8669 55.3003 48.4025 55.6811C48.0381 55.9675 47.6414 56.2111 47.2202 56.4068L46.7827 56.6175L47.3857 56.8633Z" fill="white"/>
</g>
<defs>
<clipPath id="clip0_1690_38663">
<rect width="100" height="104" fill="white" transform="translate(0.5 0.451172)"/>
</clipPath>
</defs>
</svg>
