<svg width="101" height="105" viewBox="0 0 101 105" fill="none" xmlns="http://www.w3.org/2000/svg">
<g clip-path="url(#clip0_1690_38673)">
<path opacity="0.2" d="M93.5503 85.9394C91.5822 100.506 75.8438 108.789 62.723 102.164L19.7755 80.4792C4.2633 72.6469 4.07674 50.5632 19.4544 42.4699L68.8437 16.4764C84.2214 8.38315 102.319 21.0404 99.9922 38.2613L93.5503 85.9394Z" fill="#FFB762"/>
<path d="M30.1656 33.666C30.9666 32.9228 32.0866 32.6303 33.1488 32.887L53.6132 37.8321C54.6747 38.0886 55.5373 38.8596 55.9108 39.8858L59.1756 48.8542C59.6146 50.06 59.6879 51.3686 59.3865 52.616L50.4575 89.5671C50.0346 91.3172 48.273 92.3931 46.5229 91.9702L14.7347 84.2887C12.9846 83.8658 11.9087 82.1042 12.3316 80.3541L21.2581 43.4135C21.5593 42.1673 22.2212 41.0375 23.161 40.1654L30.1656 33.666Z" fill="#00C65E"/>
<path d="M24.7083 34.3045C25.1814 33.3196 26.1164 32.6371 27.1987 32.4868L48.0521 29.5913C49.1338 29.4411 50.2188 29.8425 50.9423 30.6605L57.2656 37.8094C58.1158 38.7706 58.6634 39.9613 58.8399 41.2324L64.0682 78.8858C64.3158 80.6692 63.0708 82.3156 61.2874 82.5632L28.8951 87.0609C27.1118 87.3086 25.4653 86.0636 25.2177 84.2802L19.9909 46.6375C19.8146 45.3676 20.0166 44.0739 20.5716 42.9181L24.7083 34.3045Z" fill="#CCEFDB"/>
<path d="M40.5301 58.3276C40.179 58.7867 39.7403 59.1716 39.2394 59.4602C38.7386 59.7487 38.1855 59.9351 37.6122 60.0085C37.0389 60.082 36.4567 60.0411 35.8993 59.8881C35.3418 59.7352 34.8203 59.4733 34.3647 59.1175C33.9096 58.7934 33.5264 58.3787 33.2393 57.8993C32.9522 57.42 32.7673 56.8865 32.6963 56.3323C32.6253 55.7781 32.6697 55.2152 32.8267 54.6789C32.9837 54.1427 33.2499 53.6448 33.6086 53.2164C33.9598 52.7572 34.3985 52.3723 34.8993 52.0838C35.4001 51.7952 35.9532 51.6088 36.5265 51.5354C37.0999 51.4619 37.6821 51.5029 38.2395 51.6558C38.7969 51.8087 39.3184 52.0707 39.774 52.4264C40.2291 52.7505 40.6123 53.1653 40.8994 53.6446C41.1866 54.1239 41.3715 54.6574 41.4425 55.2116C41.5135 55.7659 41.4691 56.3288 41.3121 56.865C41.1551 57.4012 40.8888 57.8992 40.5301 58.3276ZM47.0348 53.2866C47.2754 53.2654 47.5173 53.3079 47.7362 53.4097C47.9551 53.5116 48.1434 53.6693 48.2821 53.867C48.4208 54.0646 48.5051 54.2953 48.5265 54.5358C48.5478 54.7764 48.5055 55.0183 48.4038 55.2373L40.8247 71.7182C40.7261 71.9283 40.5756 72.1097 40.3874 72.2454C40.1992 72.3812 39.9795 72.4667 39.749 72.4939C39.509 72.5172 39.2671 72.4766 39.048 72.3761C38.8288 72.2756 38.6401 72.1188 38.5012 71.9217C38.3622 71.7247 38.2779 71.4943 38.2569 71.2541C38.2359 71.0139 38.2789 70.7724 38.3815 70.5542L46.0157 54.0662C46.1079 53.8621 46.2492 53.684 46.4271 53.548C46.6049 53.4119 46.8138 53.3221 47.0348 53.2866ZM35.9449 57.2141C36.332 57.5016 36.8154 57.628 37.2937 57.5667C37.772 57.5055 38.208 57.2613 38.5101 56.8854C38.7285 56.6001 38.8576 56.2566 38.8811 55.898C38.9046 55.5395 38.8215 55.182 38.6422 54.8706C38.4629 54.5592 38.1954 54.3079 37.8736 54.1482C37.5517 53.9886 37.1897 53.9277 36.8333 53.9734C36.4769 54.019 36.142 54.1692 35.8708 54.4048C35.5995 54.6405 35.4041 54.9511 35.3091 55.2977C35.2141 55.6442 35.2238 56.0111 35.3369 56.3521C35.4501 56.6932 35.6616 56.9931 35.9449 57.2141ZM46.2126 67.4806C46.5646 67.021 47.0042 66.6357 47.5059 66.3469C48.0077 66.0581 48.5617 65.8715 49.1359 65.798C49.7101 65.7244 50.2932 65.7653 50.8516 65.9182C51.4099 66.0712 51.9324 66.3332 52.389 66.6892C52.8401 67.0164 53.2194 67.4325 53.5037 67.9119C53.788 68.3912 53.9712 68.9236 54.042 69.4764C54.1129 70.0292 54.0698 70.5906 53.9156 71.1261C53.7613 71.6617 53.4991 72.1599 53.1451 72.5903C52.793 73.0499 52.3534 73.4352 51.8517 73.724C51.3499 74.0128 50.796 74.1994 50.2218 74.2729C49.6475 74.3465 49.0644 74.3056 48.5061 74.1527C47.9477 73.9997 47.4252 73.7377 46.9687 73.3817C46.5176 73.0545 46.1382 72.6384 45.8539 72.159C45.5696 71.6797 45.3864 71.1473 45.3156 70.5945C45.2448 70.0417 45.2878 69.4803 45.4421 68.9448C45.5963 68.4093 45.8585 67.911 46.2126 67.4806ZM50.828 68.5677C50.4381 68.2881 49.9567 68.1666 49.4808 68.2276C49.0048 68.2885 48.5696 68.5275 48.2628 68.8964C47.9926 69.2894 47.8896 69.7735 47.9764 70.2424C47.9888 70.4931 48.0529 70.7385 48.1647 70.9633C48.2765 71.188 48.4335 71.3873 48.626 71.5484C48.8185 71.7095 49.0422 71.8291 49.2831 71.8996C49.524 71.9702 49.7769 71.9901 50.0259 71.9582C50.2749 71.9263 50.5146 71.8432 50.7299 71.7143C50.9453 71.5853 51.1316 71.4132 51.2772 71.2087C51.4229 71.0042 51.5246 70.7719 51.5761 70.5262C51.6277 70.2805 51.6278 70.0268 51.5766 69.7811C51.5426 69.5391 51.4597 69.3066 51.3329 69.0978C51.2061 68.8889 51.038 68.7081 50.839 68.5663L50.828 68.5677Z" fill="#FFB663"/>
<circle cx="38.304" cy="38.5755" r="4.31571" fill="white"/>
<path fill-rule="evenodd" clip-rule="evenodd" d="M30.3286 20.4724C29.5762 22.4316 29.354 25.0534 29.9235 27.8529C30.5888 31.1229 32.1481 33.7288 33.9063 35.1574C35.1606 36.1764 36.4194 36.5315 37.5313 36.3053C38.3041 36.1481 39.1399 35.3171 39.7608 34.5961C39.7608 34.5961 40.3752 34.675 41.0115 35.2092C41.6478 35.7434 41.8578 36.095 41.8578 36.095C40.9206 37.1832 39.4832 38.5818 38.0537 38.8727C35.9643 39.2977 33.9291 38.5516 32.2542 37.1908C29.9297 35.3021 28.1154 32.1068 27.3562 28.3752C26.7025 25.1622 26.9259 22.0249 27.8828 19.5331C28.8332 17.0583 30.5955 15.0423 33.1016 14.5324C35.6076 14.0225 38.0175 15.1897 39.8594 17.0964C41.7138 19.0162 43.1453 21.8169 43.799 25.0299C44.2165 27.0816 44.2441 29.0172 43.9878 30.8471L41.4631 30.5486C41.676 29.0285 41.5929 27.3278 41.2317 25.5522C40.6621 22.7528 39.4331 20.4262 37.975 18.9167C36.5043 17.3942 34.9495 16.8301 33.6239 17.0998C32.2983 17.3695 31.0875 18.4962 30.3286 20.4724Z" fill="#00C65E"/>
</g>
<defs>
<clipPath id="clip0_1690_38673">
<rect width="100" height="104" fill="white" transform="translate(0.5 0.451172)"/>
</clipPath>
</defs>
</svg>
