<svg width="11" height="11" viewBox="0 0 11 11" fill="none" xmlns="http://www.w3.org/2000/svg">
<path d="M4.62343 1.3874C4.83781 0.740657 5.76894 0.740657 5.98261 1.3874L6.74723 3.69912C6.79395 3.83991 6.88476 3.96258 7.00668 4.04961C7.12861 4.13663 7.27541 4.18355 7.4261 4.18366H9.90006C10.5925 4.18366 10.8798 5.05442 10.3202 5.45468L8.31936 6.88301C8.19718 6.9701 8.10621 7.09298 8.05948 7.23401C8.01275 7.37505 8.01267 7.52701 8.05924 7.66809L8.82387 9.97981C9.03825 10.6266 8.28434 11.1652 7.72338 10.7649L5.72249 9.33657C5.60044 9.2495 5.45349 9.20261 5.30266 9.20261C5.15184 9.20261 5.00488 9.2495 4.88283 9.33657L2.88194 10.7649C2.32169 11.1652 1.5685 10.6266 1.78217 9.97981L2.54679 7.66809C2.59337 7.52701 2.59328 7.37505 2.54656 7.23401C2.49983 7.09298 2.40885 6.9701 2.28668 6.88301L0.286504 5.45539C-0.273031 5.05512 0.0149546 4.18436 0.70669 4.18436H3.17993C3.33075 4.1844 3.47771 4.13755 3.59978 4.05052C3.72185 3.96348 3.81277 3.84073 3.85952 3.69983L4.62415 1.38811L4.62343 1.3874Z" fill="#363A45"/>
</svg>
