<svg width="24" height="24" viewBox="0 0 24 24" fill="none" xmlns="http://www.w3.org/2000/svg">
<circle cx="11.6248" cy="11.7351" r="11.1067" transform="rotate(-90 11.6248 11.7351)" fill="#00C65E" stroke="white"/>
<path fill-rule="evenodd" clip-rule="evenodd" d="M14.5463 12.3187L9.8728 16.9924C9.55013 17.315 9.02698 17.315 8.70431 16.9924C8.38165 16.6697 8.38166 16.1466 8.70432 15.8239L12.7936 11.7346L8.70391 7.64486C8.38124 7.32219 8.38125 6.79904 8.70392 6.47638C9.02658 6.15372 9.54973 6.1537 9.8724 6.47637L14.5273 11.1313C14.5338 11.1374 14.5399 11.1439 14.5463 11.1503C14.8282 11.4326 14.8637 11.8686 14.6521 12.1891C14.6219 12.235 14.5866 12.2784 14.5463 12.3187Z" fill="white"/>
</svg>
