<svg width="73" height="66" viewBox="0 0 73 66" fill="none" xmlns="http://www.w3.org/2000/svg">
<circle cx="36.4985" cy="33.1309" r="32.5" fill="#CCEFDB"/>
<path d="M0.0170898 15.7653C0.0170898 13.5099 1.84539 11.6816 4.10072 11.6816H50.5522C52.8075 11.6816 54.6358 13.5099 54.6358 15.7653V49.1744H4.10072C1.8454 49.1744 0.0170898 47.3461 0.0170898 45.0908V15.7653Z" fill="#F89358"/>
<path fill-rule="evenodd" clip-rule="evenodd" d="M2.65649 17.4366C2.65649 15.2938 4.3936 13.5566 6.53644 13.5566H50.671C52.8138 13.5566 54.5509 15.2937 54.5509 17.4366V23.4819H64.6196C66.1387 23.4819 67.518 24.3684 68.149 25.7502L72.6292 35.5619C72.8602 36.0678 72.9798 36.6174 72.9798 37.1735V45.2974C72.9798 47.4403 71.2426 49.1774 69.0998 49.1774H54.5509V49.1794H6.53643C4.3936 49.1794 2.65649 47.4422 2.65649 45.2994V17.4366Z" fill="#FFB762"/>
<path d="M64.9485 27.2305H58.1444C57.7158 27.2305 57.3684 27.5779 57.3684 28.0065V35.6506C57.3684 36.0792 57.7158 36.4266 58.1444 36.4266H68.7088C69.2737 36.4266 69.6493 35.8422 69.4147 35.3283L66.0362 27.9296C65.8418 27.5037 65.4167 27.2305 64.9485 27.2305Z" fill="white"/>
<path d="M55.1398 54.5813C51.4255 54.5813 48.4145 51.5703 48.4145 47.8561C48.4145 44.1418 51.4255 41.1309 55.1398 41.1309C58.854 41.1309 61.865 44.1418 61.865 47.8561C61.865 51.5703 58.854 54.5813 55.1398 54.5813Z" fill="white"/>
<path d="M55.1403 51.2194C53.2832 51.2194 51.7777 49.7139 51.7777 47.8568C51.7777 45.9996 53.2832 44.4941 55.1403 44.4941C56.9974 44.4941 58.5029 45.9996 58.5029 47.8568C58.5029 49.7139 56.9974 51.2194 55.1403 51.2194Z" fill="#F89358"/>
<path d="M19.0897 54.5813C15.3755 54.5813 12.3645 51.5703 12.3645 47.8561C12.3645 44.1418 15.3755 41.1309 19.0897 41.1309C22.804 41.1309 25.8149 44.1418 25.8149 47.8561C25.8149 51.5703 22.804 54.5813 19.0897 54.5813Z" fill="white"/>
<path d="M19.0898 51.2194C17.2326 51.2194 15.7272 49.7139 15.7272 47.8568C15.7272 45.9996 17.2326 44.4941 19.0898 44.4941C20.9469 44.4941 22.4524 45.9996 22.4524 47.8568C22.4524 49.7139 20.9469 51.2194 19.0898 51.2194Z" fill="#F89358"/>
<path d="M28.2056 27.2327H31.7705V35.3667H33.3029C36.7415 35.3667 38.4601 33.696 38.4588 30.3547C38.4588 27.0815 36.8632 25.4456 33.6719 25.4468H33.0282V22.7988L33.4884 22.7988C36.2334 22.7988 38.366 23.4575 39.8864 24.7749C41.4067 26.0923 42.1662 27.9265 42.1649 30.2774C42.1649 32.7805 41.3778 34.6967 39.8037 36.026C38.2296 37.3554 35.9511 38.0243 32.9682 38.0327H28.2056V27.2327Z" fill="#00C65E"/>
<path d="M31.7725 22.7988H28.2056V25.9767H31.7725V22.7988Z" fill="#00C65E"/>
</svg>
