<svg width="212" height="114" viewBox="0 0 212 114" fill="none" xmlns="http://www.w3.org/2000/svg">
<path fill-rule="evenodd" clip-rule="evenodd" d="M73.3424 40.9649C73.3424 36.7558 76.7545 33.3438 80.9635 33.3438H167.654C171.863 33.3438 175.275 36.7558 175.275 40.9649V52.8372H195.053C198.037 52.8372 200.747 54.5785 201.986 57.2927L210.786 76.5653C211.24 77.559 211.475 78.6385 211.475 79.7309V95.6881C211.475 99.8971 208.063 103.309 203.854 103.309H175.275V103.315H80.9635C76.7545 103.315 73.3424 99.9031 73.3424 95.6941V40.9649Z" fill="white"/>
<path d="M195.698 60.2109H182.333C181.492 60.2109 180.809 60.8934 180.809 61.7352V76.7502C180.809 77.592 181.492 78.2744 182.333 78.2744H203.084C204.194 78.2744 204.932 77.1265 204.471 76.1171L197.835 61.5841C197.453 60.7476 196.618 60.2109 195.698 60.2109Z" fill="#00C65E"/>
<path d="M177.813 113.934C170.517 113.934 164.603 108.019 164.603 100.724C164.603 93.428 170.517 87.5137 177.813 87.5137C185.109 87.5137 191.023 93.428 191.023 100.724C191.023 108.019 185.109 113.934 177.813 113.934Z" fill="#00C65E"/>
<path d="M177.813 107.327C174.166 107.327 171.208 104.37 171.208 100.722C171.208 97.0743 174.166 94.1172 177.813 94.1172C181.461 94.1172 184.418 97.0743 184.418 100.722C184.418 104.37 181.461 107.327 177.813 107.327Z" fill="white"/>
<path d="M107.002 113.934C99.7062 113.934 93.7919 108.019 93.7919 100.724C93.7919 93.428 99.7062 87.5137 107.002 87.5137C114.297 87.5137 120.212 93.428 120.212 100.724C120.212 108.019 114.297 113.934 107.002 113.934Z" fill="#00C65E"/>
<path d="M107.002 107.327C103.354 107.327 100.397 104.37 100.397 100.722C100.397 97.0743 103.354 94.1172 107.002 94.1172C110.65 94.1172 113.607 97.0743 113.607 100.722C113.607 104.37 110.65 107.327 107.002 107.327Z" fill="white"/>
<path d="M22.4556 54.6973L46.7727 54.6973" stroke="#00C65E" stroke-width="4.57268" stroke-linecap="round"/>
<path d="M45.4878 64.9434L61.9617 64.9434" stroke="white" stroke-width="3.04845" stroke-linecap="round"/>
<path d="M2.84448 77.3711L42.107 77.3707" stroke="#00C65E" stroke-width="4.57268" stroke-linecap="round"/>
<path d="M29.3816 92.2969L50.4239 92.2969" stroke="white" stroke-width="3.04845" stroke-linecap="round"/>
<path d="M126.516 68.329C145.381 68.329 160.674 53.0361 160.674 34.1714C160.674 15.3066 145.381 0.0136719 126.516 0.0136719C107.651 0.0136719 92.3583 15.3066 92.3583 34.1714C92.3583 53.0361 107.651 68.329 126.516 68.329Z" fill="#00C65E"/>
<path d="M126.516 63.1897C142.545 63.1897 155.538 50.1962 155.538 34.1681C155.538 18.1399 142.545 5.14648 126.516 5.14648C110.488 5.14648 97.4948 18.1399 97.4948 34.1681C97.4948 50.1962 110.488 63.1897 126.516 63.1897Z" fill="white"/>
<path d="M126.516 63.5445C120.706 63.5434 115.027 61.8196 110.198 58.5912C105.368 55.3627 101.604 50.7746 99.3811 45.407C97.1587 40.0393 96.5778 34.1332 97.7119 28.4354C98.846 22.7377 101.644 17.5041 105.752 13.3966C109.861 9.28901 115.095 6.4919 120.793 5.35894C126.491 4.22598 132.397 4.80803 137.764 7.03151C143.131 9.25499 147.719 13.02 150.946 17.8506C154.174 22.6811 155.896 28.3602 155.896 34.1697C155.887 41.9586 152.789 49.4257 147.28 54.9327C141.772 60.4398 134.305 63.5369 126.516 63.5445ZM126.516 5.50136C120.846 5.50136 115.303 7.18273 110.588 10.3329C105.874 13.483 102.199 17.9604 100.03 23.1988C97.8598 28.4373 97.2921 34.2015 98.3982 39.7627C99.5044 45.3238 102.235 50.432 106.244 54.4413C110.253 58.4507 115.362 61.1811 120.923 62.2873C126.484 63.3934 132.248 62.8257 137.487 60.6559C142.725 58.486 147.203 54.8115 150.353 50.097C153.503 45.3825 155.184 39.8398 155.184 34.1697C155.178 26.5672 152.156 19.2777 146.781 13.9008C141.407 8.52393 134.118 5.49898 126.516 5.48978V5.50136Z" fill="white"/>
<path d="M126.107 5.99805C136.836 5.99805 146.206 11.8207 151.228 20.4786" stroke="#F89358" stroke-width="3.04845" stroke-linecap="round"/>
<path d="M126.498 36.5397C127.797 36.5397 128.849 35.4872 128.849 34.1888C128.849 32.8904 127.797 31.8379 126.498 31.8379C125.2 31.8379 124.147 32.8904 124.147 34.1888C124.147 35.4872 125.2 36.5397 126.498 36.5397Z" fill="#00C65E"/>
<path d="M127.651 11.1793V8.26093C127.651 7.63573 127.145 7.12891 126.519 7.12891C125.894 7.12891 125.387 7.63573 125.387 8.26094V11.1793C125.387 11.8045 125.894 12.3113 126.519 12.3113C127.145 12.3113 127.651 11.8045 127.651 11.1793Z" fill="#00C65E"/>
<path d="M127.634 60.0973V57.1789C127.634 56.5537 127.127 56.0469 126.502 56.0469C125.876 56.0469 125.37 56.5537 125.37 57.1789V60.0973C125.37 60.7225 125.876 61.2293 126.502 61.2293C127.127 61.2293 127.634 60.7225 127.634 60.0973Z" fill="#00C65E"/>
<path d="M103.496 33.0445H100.578C99.9526 33.0445 99.4458 33.5514 99.4458 34.1766C99.4458 34.8018 99.9526 35.3086 100.578 35.3086H103.496C104.121 35.3086 104.628 34.8018 104.628 34.1766C104.628 33.5514 104.121 33.0445 103.496 33.0445Z" fill="#00C65E"/>
<path d="M152.42 33.0504H149.501C148.876 33.0504 148.369 33.5572 148.369 34.1824C148.369 34.8076 148.876 35.3145 149.501 35.3145H152.42C153.045 35.3145 153.552 34.8076 153.552 34.1824C153.552 33.5572 153.045 33.0504 152.42 33.0504Z" fill="#00C65E"/>
<path d="M112.814 11.3457L114.97 15.0816C115.09 15.2893 115.356 15.3605 115.564 15.2406C115.771 15.1207 115.843 14.8551 115.723 14.6473L113.566 10.9114C113.446 10.7037 113.18 10.6325 112.973 10.7525C112.765 10.8724 112.694 11.138 112.814 11.3457Z" fill="#00C65E"/>
<path d="M103.229 21.2492L106.965 23.4062C107.173 23.5261 107.438 23.4549 107.558 23.2472C107.678 23.0395 107.607 22.7739 107.399 22.654L103.663 20.497C103.456 20.3771 103.19 20.4483 103.07 20.656C102.95 20.8637 103.021 21.1293 103.229 21.2492Z" fill="#00C65E"/>
<path d="M103.656 47.8724L107.392 45.7154C107.6 45.5955 107.671 45.3299 107.551 45.1222C107.431 44.9145 107.166 44.8433 106.958 44.9632L103.222 47.1202C103.014 47.2401 102.943 47.5057 103.063 47.7134C103.183 47.9211 103.449 47.9923 103.656 47.8724Z" fill="#00C65E"/>
<path d="M113.94 57.8191L116.097 54.066C116.217 53.8573 116.145 53.591 115.937 53.471C115.728 53.3511 115.462 53.4231 115.342 53.6317L113.185 57.3848C113.065 57.5935 113.137 57.8598 113.345 57.9798C113.554 58.0997 113.82 58.0277 113.94 57.8191Z" fill="#00C65E"/>
<path d="M140.19 57.0273L138.033 53.2914C137.913 53.0837 137.647 53.0125 137.439 53.1325C137.232 53.2524 137.16 53.518 137.28 53.7257L139.437 57.4616C139.557 57.6693 139.823 57.7405 140.031 57.6206C140.238 57.5007 140.309 57.2351 140.19 57.0273Z" fill="#00C65E"/>
<path d="M149.775 47.1238L146.039 44.9669C145.831 44.847 145.565 44.9181 145.446 45.1259C145.326 45.3336 145.397 45.5992 145.604 45.7191L149.34 47.876C149.548 47.9959 149.814 47.9248 149.934 47.7171C150.054 47.5094 149.982 47.2438 149.775 47.1238Z" fill="#00C65E"/>
<path d="M149.347 20.4948L145.611 22.6518C145.403 22.7717 145.332 23.0373 145.452 23.245C145.572 23.4527 145.837 23.5239 146.045 23.404L149.781 21.247C149.989 21.1271 150.06 20.8615 149.94 20.6538C149.82 20.4461 149.554 20.3749 149.347 20.4948Z" fill="#00C65E"/>
<path d="M139.442 10.9127L137.285 14.6486C137.165 14.8563 137.236 15.1219 137.444 15.2418C137.652 15.3618 137.917 15.2906 138.037 15.0829L140.194 11.347C140.314 11.1393 140.243 10.8737 140.035 10.7537C139.827 10.6338 139.562 10.705 139.442 10.9127Z" fill="#00C65E"/>
<path d="M127.952 34.1716H125.085L124.304 17.0898H128.733L127.952 34.1716Z" fill="#00C65E"/>
<path d="M131.884 16.3552C132.172 16.6432 131.968 17.1358 131.561 17.1358H121.47C121.063 17.1358 120.859 16.6432 121.147 16.3552L126.192 11.3097C126.371 11.1311 126.66 11.1311 126.839 11.3097L131.884 16.3552Z" fill="#00C65E"/>
<path d="M127.832 35.2932L127.141 34.1917L141.18 24.4311L142.708 26.8553L127.832 35.2932Z" fill="#00C65E"/>
<path d="M143.936 27.9217C143.875 28.1864 143.525 28.246 143.381 28.0162L140.425 23.3169C140.28 23.0871 140.486 22.7972 140.75 22.8573L144.58 23.7267C144.744 23.764 144.847 23.9275 144.81 24.0918L143.936 27.9217Z" fill="#00C65E"/>
</svg>
