<svg width="51" height="26" viewBox="0 0 51 26" fill="none" xmlns="http://www.w3.org/2000/svg">
<path d="M4.20518 7.99883L4.13376 8.21263C4.08743 8.36287 4.00062 8.55547 3.8714 8.77887C3.74218 9.00227 3.56672 9.23335 3.37006 9.47983C3.1734 9.7263 2.87078 9.97849 2.48531 10.2326C2.08828 10.4885 1.64505 10.6809 1.14599 10.8232L1.52026 13.0775L4.35258 12.6072L6.35639 24.6764L9.91703 24.0852L7.16467 7.50747L4.20518 7.99883ZM18.7372 14.1035C18.4493 12.3694 18.5735 10.9708 19.1213 9.90576C19.6691 8.84072 20.4227 8.22855 21.3938 8.06732C22.3533 7.90801 23.2644 8.2438 24.127 9.07468C24.978 9.90748 25.559 11.189 25.8469 12.9231C26.1348 14.6571 25.9991 16.0577 25.4628 17.1208C24.915 18.1858 24.1614 18.798 23.2018 18.9573C22.2308 19.1185 21.3197 18.7828 20.4571 17.9519C19.5946 17.121 19.0251 15.8376 18.7372 14.1035ZM29.396 12.3338C28.966 9.74428 27.9269 7.77855 26.2883 6.42316C24.6381 5.0697 22.8294 4.55033 20.8641 4.87662C18.8872 5.20483 17.3434 6.28081 16.2191 8.09493C15.0948 9.90904 14.7466 12.1051 15.1766 14.6946C15.6065 17.2842 16.6475 19.2615 18.2977 20.6149C19.9499 21.98 21.7567 22.4878 23.7335 22.1596C25.6988 21.8333 27.2446 20.7689 28.3669 18.9432C29.4797 17.131 29.8259 14.9234 29.396 12.3338ZM33.1311 6.85512C33.0524 6.38114 33.1374 5.96313 33.4074 5.58569C33.6677 5.22174 34.0339 4.99463 34.5079 4.91594C34.9818 4.83724 35.4018 4.93383 35.7773 5.19222C36.1432 5.4641 36.3703 5.83028 36.449 6.30426C36.5277 6.77824 36.4311 7.19817 36.1708 7.56213C35.9008 7.93956 35.5327 8.15511 35.0587 8.2338C34.5847 8.3125 34.1667 8.22747 33.8009 7.9556C33.4253 7.6972 33.2098 7.3291 33.1311 6.85512ZM35.1767 19.8914L38.1362 19.4001L45.7998 1.09298L42.8403 1.58434L35.1767 19.8914ZM38.8189 5.91079C38.648 4.88191 38.0918 4.03581 37.1752 3.38021C36.2585 2.72461 35.2453 2.48894 34.1355 2.6732C33.0257 2.85746 32.143 3.4079 31.4874 4.32453C30.8318 5.24116 30.5904 6.2197 30.7612 7.24859C30.932 8.27747 31.4767 9.12549 32.3933 9.78109C33.31 10.4367 34.3232 10.6724 35.433 10.4881C36.5428 10.3038 37.4255 9.7534 38.0811 8.83677C38.7367 7.92014 38.9897 6.93968 38.8189 5.91079ZM47.8473 14.1409C47.926 14.6148 47.8294 15.0348 47.5691 15.3987C47.2992 15.7762 46.9311 15.9917 46.4571 16.0704C45.9831 16.1491 45.5651 16.0641 45.1992 15.7922C44.8237 15.5338 44.6082 15.1657 44.5295 14.6917C44.4508 14.2177 44.5358 13.7997 44.8058 13.4223C45.0661 13.0583 45.4323 12.8312 45.9062 12.7525C46.3802 12.6738 46.8002 12.7704 47.1757 13.0288C47.5415 13.3007 47.7686 13.6669 47.8473 14.1409ZM42.1596 15.0852C42.3304 16.1141 42.8751 16.9621 43.7917 17.6177C44.7083 18.2733 45.7216 18.509 46.8314 18.3247C47.9412 18.1404 48.8239 17.59 49.4795 16.6734C50.1351 15.7567 50.3881 14.7763 50.2172 13.7474C50.0483 12.7301 49.4921 11.884 48.5755 11.2284C47.6588 10.5728 46.6437 10.3255 45.5339 10.5098C44.4241 10.6941 43.5433 11.2561 42.8877 12.1727C42.2321 13.0893 41.9907 14.0679 42.1596 15.0852Z" fill="#FFB762"/>
</svg>
