<svg width="625" height="260" viewBox="0 0 625 260" fill="none" xmlns="http://www.w3.org/2000/svg">
<path opacity="0.4" fill-rule="evenodd" clip-rule="evenodd" d="M627.684 17.9937C628.512 19.8903 631.015 29.1439 629.118 29.9716C583.589 49.843 569.618 66.4475 543.206 99.4928C540.134 103.785 531.921 113.541 528.923 117.87C511.066 139.628 502.117 155.583 474.142 177.033C401.236 229.177 326.509 221.697 264.05 208.206C232.884 201.474 203.822 191.353 177.839 182.284L177.615 182.205C151.576 173.116 128.881 165.194 109.859 162.455C79.6145 158.099 57.3997 163.744 42.7017 175.117C16.1651 193.579 5.46895 249.496 2.61495 259.756C2.0604 261.75 2.85079 263.67 0.857135 263.115C-0.326979 262.786 0.302762 261.195 0.857312 259.201C4.09795 247.551 14.6827 191.827 38.7921 171.437C55.1317 158.795 78.7201 150.399 110.927 155.037C130.671 157.881 153.929 166 179.485 174.921L180.308 175.208C206.337 184.294 234.983 194.261 265.632 200.881C326.801 214.094 396.926 219.89 466.705 168.446C492.757 148.757 510.455 119.618 526.174 96.9476C529.219 92.5573 532.294 88.1225 535.485 83.6648C555.132 56.2209 577.257 22.5695 624.488 1.95584C626.245 -4.47659 626.857 16.0972 627.684 17.9937Z" fill="url(#paint0_linear_1457_414)"/>
<defs>
<linearGradient id="paint0_linear_1457_414" x1="690.349" y1="-25.9349" x2="-11.046" y2="263.212" gradientUnits="userSpaceOnUse">
<stop stop-color="#00C65E"/>
<stop offset="1" stop-color="#00C65E" stop-opacity="0"/>
</linearGradient>
</defs>
</svg>
