<svg width="625" height="219" viewBox="0 0 625 219" fill="none" xmlns="http://www.w3.org/2000/svg">
<path opacity="0.4" fill-rule="evenodd" clip-rule="evenodd" d="M641.033 17.1795C641.874 18.9743 644.359 27.8194 642.431 28.6028C596.146 47.4074 580.303 52.5601 553.452 83.8316C550.329 87.8932 541.98 97.1252 538.932 101.222C520.779 121.812 510.447 135.184 482.008 155.483C407.892 204.828 331.925 197.749 268.429 184.982C235.545 176.891 205.753 162.873 179.338 154.291L179.11 154.217C152.639 145.615 129.568 138.119 110.23 135.526C79.4839 131.404 56.9005 136.747 41.9585 147.509C14.9815 164.98 5.55665 224.056 2.65528 233.765C2.09153 235.652 2.89503 237.469 0.868289 236.944C-0.335477 236.632 0.304715 235.127 0.868469 233.24C4.16289 222.215 13.4745 163.322 37.984 144.027C54.5948 132.063 78.5746 124.117 111.316 128.507C131.387 131.198 155.032 138.881 181.012 147.323L181.849 147.595C208.309 156.193 237.149 169.51 270.037 178.051C332.222 190.554 403.511 196.039 474.447 147.357C500.931 128.725 520.158 102.877 536.138 81.423C539.233 77.2683 542.359 73.0717 545.603 68.8532C565.576 42.8825 589.71 21.598 637.724 2.09086C639.51 -3.99627 640.191 15.3847 641.033 17.1795Z" fill="url(#paint0_linear_1457_415)"/>
<defs>
<linearGradient id="paint0_linear_1457_415" x1="701.803" y1="-36.588" x2="24.3835" y2="264.203" gradientUnits="userSpaceOnUse">
<stop stop-color="#FFB762"/>
<stop offset="1" stop-color="#FFB762" stop-opacity="0"/>
</linearGradient>
</defs>
</svg>
