<svg width="16" height="15" viewBox="0 0 16 15" fill="none" xmlns="http://www.w3.org/2000/svg">
<path d="M3.26929 1.25C4.7971 0.708513 6.64057 1.11164 7.8855 3.00098L8.21948 3.50684L8.55347 3.00098C9.80667 1.10263 11.5588 0.724248 12.9802 1.26074C14.4244 1.80606 15.5984 3.32183 15.5984 5.37305C15.5983 6.08262 15.2139 6.95231 14.5496 7.90625C13.8939 8.84764 13.0052 9.81584 12.0837 10.7129C11.1638 11.6085 10.2204 12.424 9.46265 13.0596C9.08336 13.3777 8.75277 13.649 8.49194 13.8652C8.39104 13.9489 8.29847 14.0272 8.21655 14.0967C8.13024 14.0255 8.03279 13.9453 7.92651 13.8604C7.65311 13.6419 7.31269 13.3739 6.91382 13.0537C6.12162 12.4178 5.13271 11.6029 4.16675 10.707C3.19877 9.80932 2.26364 8.84028 1.57397 7.89844C0.874403 6.94304 0.473449 6.07632 0.473389 5.37305C0.473389 3.32037 1.72471 1.79749 3.26929 1.25Z" stroke="#00C65E" stroke-width="0.8"/>
</svg>
